<?xml version="1.0" standalone="no"?>
<!DOCTYPE svg PUBLIC "-//W3C//DTD SVG 1.1//EN" "http://www.w3.org/Graphics/SVG/1.1/DTD/svg11.dtd" >
<svg xmlns="http://www.w3.org/2000/svg">
<metadata>Generated by IcoMoon</metadata>
<defs>
<font id="icomoon" horiz-adv-x="1024">
<font-face units-per-em="1024" ascent="960" descent="-64" />
<missing-glyph horiz-adv-x="1024" />
<glyph unicode="&#x20;" horiz-adv-x="512" d="" />
<glyph unicode="&#xe900;" glyph-name="uniE900" d="M724.864 537.98c21.881 0 39.915-16.471 42.38-37.691l0.148-2.288c9.485-2.176 18.497-5.261 27-9.288 22.128-10.388 39.934-25.124 52.579-44.025 12.321-18.353 19.327-38.484 20.605-59.749 1.414-23.522-16.507-43.736-40.029-45.151-21.842-1.313-40.832 14.046-44.565 35.079l-0.585 4.95c-0.349 5.812-2.278 11.354-6.313 17.365-3.727 5.571-9.411 10.275-18.083 14.347-7.2 3.409-16.686 5.238-28.771 5.095-1.476-0.215-2.912-0.287-4.365-0.287l-1.435 0.078c-0.015-0.001-0.030-0.002-0.044-0.003-12.973-0.75-23.37-3.863-31.822-9.146-8.579-5.346-14.345-11.313-18.028-18.166-3.632-6.775-5.078-13.075-4.697-19.526 0.95-16.103 5.666-27.541 14.13-36.278 9.073-9.317 24.146-18.156 45.293-25.753l9.276-3.117c34.43-10.855 62.096-25.208 82.95-43.758l7.5-7.154c23.272-23.96 35.977-54.837 38.099-90.674 1.324-22.58-3.727-44.514-14.713-64.89-10.987-20.505-27.191-37.306-47.943-50.201-11.089-6.963-23.081-12.271-35.866-15.959-0.033-23.307-19.135-42.41-42.699-42.41-21.881 0-39.915 16.471-42.38 37.691l-0.139 2.277c-9.489 2.183-18.512 5.279-27.042 9.318-22.163 10.433-40.018 25.151-52.595 44.049-12.311 18.434-19.349 38.578-20.556 59.848-1.336 23.526 16.653 43.681 40.179 45.017 21.846 1.24 40.785-14.182 44.448-35.228l0.569-4.952c0.321-5.658 2.261-11.21 6.362-17.351 3.601-5.41 9.306-10.113 18.026-14.218 7.237-3.427 16.665-5.257 28.721-5.106 1.489 0.224 2.939 0.298 4.406 0.298l1.442-0.081c0.030 0.002 0.059 0.004 0.089 0.005 13.012 0.752 23.326 3.838 31.826 9.175 8.546 5.31 14.216 11.19 17.988 18.228 3.639 6.748 5.072 12.974 4.691 19.469-0.952 16.081-5.661 27.525-14.047 36.159-9.194 9.416-24.243 18.255-45.369 25.839l-9.334 3.159c-34.416 10.838-62.128 25.202-82.922 43.725l-7.473 7.142c-23.271 24.022-35.987 54.864-38.102 90.705-1.326 22.473 3.712 44.419 14.696 64.91 10.972 20.412 27.222 37.229 48.035 50.2 11.064 6.915 23.034 12.204 35.793 15.887 0.021 23.331 19.124 42.434 42.688 42.434z" />
<glyph unicode="&#xe901;" glyph-name="uniE901" d="M770.483 896.009c52.309 0 95.112-40.624 98.588-92.050l0.228-6.766v-184.619c0-23.564-19.103-42.667-42.667-42.667-21.881 0-39.915 16.471-42.38 37.691l-0.287 4.976v184.619c0 6.39-4.429 11.731-10.389 13.127l-3.094 0.356h-264.405l0.034-153.69c0-52.318-40.672-95.191-92.131-98.673l-6.771-0.228-172.535 0.004v-434.688c0-6.37 4.412-11.694 10.355-13.086l3.085-0.354h261.205c23.564 0 42.667-19.103 42.667-42.667 0-21.881-16.471-39.915-37.691-42.38l-4.976-0.287h-261.205c-52.299 0-95.072 40.615-98.546 92.011l-0.228 6.763v491.52c0 23.652 8.465 46.406 23.73 64.239l5.338 5.756 182.937 182.212c16.648 16.648 38.646 26.723 61.953 28.572l7.812 0.309h339.371zM420.745 805.897l-163.115-162.475 149.581-0.004c6.409 0 11.8 4.477 13.209 10.463l0.359 3.105-0.034 148.911z" />
<glyph unicode="&#xe902;" glyph-name="uniE902" d="M329.813 874.24c23.564 0 42.667-19.103 42.667-42.667v0-767.147c0-23.564-19.103-42.667-42.667-42.667s-42.667 19.103-42.667 42.667v0 767.147c0 23.564 19.103 42.667 42.667 42.667zM723.2 392.107c21.881 0 39.915-16.471 42.38-37.691l0.287-4.976v-33.237l33.28-0.043c21.881 0 39.915-16.471 42.38-37.691l0.287-4.976c0-21.881-16.471-39.915-37.691-42.38l-4.976-0.287-33.28 0.043v-33.323c0-21.881-16.471-39.915-37.691-42.38l-4.976-0.287c-21.881 0-39.915 16.471-42.38 37.691l-0.287 4.976v33.323l-33.28-0.043c-21.881 0-39.915 16.471-42.38 37.691l-0.287 4.976c0 21.881 16.471 39.915 37.691 42.38l4.976 0.287 33.28 0.043v33.237c0 20.198 14.035 37.118 32.884 41.54l4.807 0.84 4.976 0.287z" />
<glyph unicode="&#xe903;" glyph-name="uniE903" d="M559.926 435.519c90.169 90.073 236.275 90.021 326.38-0.116s90.105-236.243 0-326.38c-90.105-90.137-236.212-90.189-326.38-0.116-16.671 16.653-16.686 43.669-0.032 60.34s43.669 16.686 60.34 0.032c56.835-56.774 148.928-56.742 205.722 0.073s56.794 148.908 0 205.722c-56.794 56.815-148.887 56.847-205.722 0.073-16.671-16.653-43.686-16.639-60.34 0.032s-16.639 43.686 0.032 60.34zM331.446 815.576c34.148 1.244 68.245-5.111 100.151-18.816 31.268-13.873 58.035-36.21 77.171-64.335 17.249-25.108 27.463-54.376 29.582-84.764 1.639-23.507-16.088-43.892-39.595-45.532s-43.892 16.088-45.532 39.595v0l-0.865 7.544c-1.998 12.475-6.757 24.402-14.033 34.995-10.293 15.127-24.61 27.075-40.868 34.292-22.354 9.6-46.754 13.459-73.447 11.069v0l-9.736-0.691c-19.376-2.097-38.095-8.457-54.819-18.686-16.544-10.097-30.065-24.463-39.471-42.196-7.965-14.457-11.762-30.841-10.932-48.247 0.759-28.457 12.066-55.616 29.965-74.464 28.743-26.799 63.672-46.066 101.395-56.011 51.922-13.314 99.72-39.325 141.246-77.823 34.005-36.198 53.334-83.747 54.173-131.855 1.784-32.771-5.92-65.362-21.835-93.238-16.489-30.061-40.678-55.194-69.736-72.611-32.046-19.629-68.638-30.607-103.603-31.693v0l-12.826-0.851c-34.207-1.309-68.339 5.050-99.93 18.704-31.182 13.552-57.841 35.736-76.455 63.382-17.451 25.050-27.863 54.321-30.151 84.764-1.766 23.498 15.851 43.978 39.349 45.745s43.978-15.851 45.745-39.349v0l0.91-7.557c2.078-12.499 6.958-24.48 14.545-35.379 9.906-14.707 23.809-26.276 39.992-33.31 22.279-9.629 46.627-13.479 73.384-11.029v0l9.731 0.686c19.368 2.090 38.113 8.471 55.087 18.866 16.424 9.845 29.933 23.882 39.494 41.299 8.134 14.252 11.985 30.548 11.037 48.483-0.513 28.481-11.6 55.754-28.955 74.385-28.987 26.772-64.174 45.92-102.673 55.793v0l-13.973 4.022c-46.219 14.442-88.806 39.225-125.903 73.902-34.277 35.895-53.991 83.248-55.28 131.944-1.556 32.264 5.873 64.327 21.132 92.010 16.253 30.663 40.461 56.385 70.049 74.443 32.041 19.597 68.609 30.568 103.678 31.688v0z" />
<glyph unicode="&#xe904;" glyph-name="uniE904" d="M512 110.942c27.099 0 49.067 21.968 49.067 49.067s-21.968 49.067-49.067 49.067c-27.099 0-49.067-21.968-49.067-49.067s21.968-49.067 49.067-49.067zM753.637 917.046l4.976 0.287c21.881 0 39.915-16.471 42.38-37.691l0.287-4.976v-33.237l33.28-0.043c21.881 0 39.915-16.471 42.38-37.691l0.287-4.976c0-21.881-16.471-39.915-37.691-42.38l-4.976-0.287-33.28 0.043v-33.323c0-21.881-16.471-39.915-37.691-42.38l-4.976-0.287c-21.881 0-39.915 16.471-42.38 37.691l-0.287 4.976v33.323l-33.28-0.043c-21.881 0-39.915 16.471-42.38 37.691l-0.287 4.976c0 21.881 16.471 39.915 37.691 42.38l4.976 0.287 33.28 0.043v33.237c0 21.881 16.471 39.915 37.691 42.38v0z" />
<glyph unicode="&#xe905;" glyph-name="uniE905" d="M557.024 917.333c23.564 0 42.667-19.103 42.667-42.667 0-21.881-16.471-39.915-37.691-42.38l-4.976-0.287-224.976-0.035-9.195-0.3c-7.574-0.465-10.774-1.449-13.991-3.17-2.994-1.601-5.089-3.696-6.69-6.69-2.295-4.29-3.28-8.549-3.47-23.186v-701.236l0.3-9.195c0.465-7.574 1.449-10.774 3.17-13.991 1.601-2.994 3.696-5.089 6.69-6.69 4.29-2.295 8.549-3.28 23.186-3.47l353.907-0.035c19.569 0 24.355 0.924 29.182 3.506 2.994 1.601 5.089 3.696 6.69 6.69 2.295 4.29 3.28 8.549 3.47 23.186l0.035 478.304c0 23.564 19.103 42.667 42.667 42.667 21.881 0 39.915-16.471 42.38-37.691l0.287-4.976v-472.308c0-32.451-3.494-50.546-13.591-69.425-9.554-17.865-23.83-32.141-41.695-41.695-16.991-9.087-33.347-12.826-60.105-13.483l-9.32-0.108h-347.911c-32.451 0-50.546 3.494-69.425 13.591-17.865 9.554-32.141 23.83-41.695 41.695-9.087 16.991-12.826 33.347-13.483 60.105l-0.108 9.32v689.245c0 32.451 3.494 50.546 13.591 69.425 9.554 17.865 23.83 32.141 41.695 41.695 16.991 9.087 33.347 12.826 60.105 13.483l9.32 0.108h218.98z" />
<glyph unicode="&#xe906;" glyph-name="uniE906" d="M602.56 301.948c23.564 0 42.667-19.103 42.667-42.667 0-21.881-16.471-39.915-37.691-42.38l-4.976-0.287h-261.589c-23.564 0-42.667 19.103-42.667 42.667 0 21.881 16.471 39.915 37.691 42.38l4.976 0.287h261.589zM471.778 646.554c84.014 0 152.107-68.075 152.107-152.064 0-84.023-68.084-152.107-152.107-152.107-84.026 0-152.149 68.087-152.149 152.107 0 83.986 68.133 152.064 152.149 152.064zM471.778 561.22c-36.904 0-66.816-29.888-66.816-66.731 0-36.881 29.908-66.773 66.816-66.773 36.895 0 66.773 29.879 66.773 66.773 0 36.856-29.883 66.731-66.773 66.731zM815.531 874.654c21.881 0 39.915-16.471 42.38-37.691l0.287-4.976-0.030-33.28 33.323-0.009c23.564 0 42.667-19.103 42.667-42.667 0-21.881-16.471-39.915-37.691-42.38l-4.976-0.287-33.323 0.009 0.030-33.323c0-23.564-19.103-42.667-42.667-42.667-21.881 0-39.915 16.471-42.38 37.691l-0.287 4.976-0.030 33.323-33.28-0.009c-23.564 0-42.667 19.103-42.667 42.667 0 21.881 16.471 39.915 37.691 42.38l4.976 0.287 33.28 0.009 0.030 33.28c0 23.564 19.103 42.667 42.667 42.667z" />
<glyph unicode="&#xe907;" glyph-name="uniE907" d="M621.483 789.333c23.564 0 42.667-19.103 42.667-42.667 0-21.881-16.471-39.915-37.691-42.38l-4.976-0.287h-427.392c-11.646 0-21.303-8.496-23.117-19.625l-0.307-3.799v-534.528c0-11.663 8.477-21.306 19.619-23.118l3.805-0.306h555.392c11.626 0 21.264 8.479 23.075 19.62l0.306 3.804v406.528c0 23.564 19.103 42.667 42.667 42.667 21.881 0 39.915-16.471 42.38-37.691l0.287-4.976v-406.528c0-57.673-44.845-104.845-101.565-108.526l-7.15-0.231h-555.392c-57.683 0-104.845 44.855-108.526 101.604l-0.231 7.153v534.528c0 57.652 44.864 104.843 101.605 108.526l7.152 0.231h427.392z" />
<glyph unicode="&#xe908;" glyph-name="uniE908" d="M766.437 384.993l4.976 0.287c21.881 0 39.915-16.471 42.38-37.691l0.287-4.976v-84.907h84.907c21.881 0 39.915-16.471 42.38-37.691l0.287-4.976c0-21.881-16.471-39.915-37.691-42.38l-4.976-0.287h-84.907v-84.48c0-21.881-16.471-39.915-37.691-42.38l-4.976-0.287c-21.881 0-39.915 16.471-42.38 37.691l-0.287 4.976v84.48h-84.48c-21.881 0-39.915 16.471-42.38 37.691l-0.287 4.976c0 21.881 16.471 39.915 37.691 42.38l4.976 0.287h84.48v84.907c0 21.881 16.471 39.915 37.691 42.38v0zM125.013 614.4h773.973c23.564 0 42.667-19.103 42.667-42.667 0-21.881-16.471-39.915-37.691-42.38l-4.976-0.287h-773.973c-23.564 0-42.667 19.103-42.667 42.667 0 21.881 16.471 39.915 37.691 42.38l4.976 0.287z" />
<glyph unicode="&#xe909;" glyph-name="uniE909" d="M451.84 257.707h-246.187c-10.071 0-19.73 4.001-26.851 11.122s-11.122 16.78-11.122 26.851v389.973c0 20.972 17.001 37.973 37.973 37.973h612.693c20.972 0 37.973-17.001 37.973-37.973v-237.653c0-23.564 19.103-42.667 42.667-42.667s42.667 19.103 42.667 42.667v237.653c0 68.1-55.206 123.307-123.307 123.307h-612.693c-68.1 0-123.307-55.206-123.307-123.307v-389.973c0-32.703 12.991-64.066 36.116-87.191s54.488-36.116 87.191-36.116h246.187c23.564 0 42.667 19.103 42.667 42.667s-19.103 42.667-42.667 42.667z" />
<glyph unicode="&#xe90a;" glyph-name="uniE90A" d="M682.667 468.894c23.552 0 42.667-19.072 42.667-42.667s-19.115-42.667-42.667-42.667v0h-85.333c-23.552 0-42.667 19.072-42.667 42.667s19.115 42.667 42.667 42.667v0zM426.667 468.894c23.552 0 42.667-19.072 42.667-42.667s-19.115-42.667-42.667-42.667v0h-85.333c-23.552 0-42.667 19.072-42.667 42.667s19.115 42.667 42.667 42.667v0zM426.667 643.853c23.552 0 42.667-19.072 42.667-42.667s-19.115-42.667-42.667-42.667v0h-85.333c-23.552 0-42.667 19.072-42.667 42.667s19.115 42.667 42.667 42.667v0zM682.667 643.853c23.552 0 42.667-19.072 42.667-42.667s-19.115-42.667-42.667-42.667v0h-85.333c-23.552 0-42.667 19.072-42.667 42.667s19.115 42.667 42.667 42.667v0z" />
<glyph unicode="&#xe90b;" glyph-name="uniE90B" d="M601.941 74.27v160.768c0 19.285-15.616 34.901-34.901 34.901h-110.080c-19.285 0-34.901-15.616-34.901-34.901v-160.768z" />
<glyph unicode="&#xe90c;" glyph-name="uniE90C" d="M170.667 61.877c23.552 0 42.667 19.072 42.667 42.667v582.369c0 16.256 10.24 31.061 25.515 36.779l248.277 93.141c16 5.973 33.707 5.973 49.749 0l248.277-93.141c15.275-5.717 25.515-20.523 25.515-36.779v-580.245c0-23.595 19.115-42.667 42.667-42.667s42.667 19.072 42.667 42.667v580.245c0 51.669-32.512 98.517-80.896 116.693l-248.277 93.141c-35.371 13.227-74.368 13.227-109.653 0l-248.277-93.141c-48.384-18.176-80.896-65.024-80.896-116.693v-582.369c0-23.595 19.115-42.667 42.667-42.667v0z" />
<glyph unicode="&#xe90d;" glyph-name="uniE90D" d="M509.481 61.867h5.037c8.388 0.493 16.658 3.451 23.632 8.873l4.020 3.549 259.413 259.413c16.662 16.662 16.662 43.677 0 60.34-15.381 15.381-39.583 16.564-56.32 3.549l-4.020-3.549-229.243-229.21-229.243 229.21c-15.381 15.381-39.583 16.564-56.32 3.549l-4.020-3.549c-15.381-15.381-16.564-39.583-3.549-56.32l3.549-4.020 259.413-259.413c7.69-7.69 17.586-11.831 27.651-12.423v0z" />
<glyph unicode="&#xe90e;" glyph-name="uniE90E" d="M469.333 329.387v453.547c0 23.564 19.103 42.667 42.667 42.667s42.667-19.103 42.667-42.667v-453.547c0-23.564-19.103-42.667-42.667-42.667s-42.667 19.103-42.667 42.667z" />
<glyph unicode="&#xe90f;" glyph-name="uniE90F" d="M148.090 427.524v5.037c0.493 8.388 3.451 16.658 8.873 23.632l3.549 4.020 259.413 259.413c16.662 16.662 43.677 16.662 60.34 0 15.381-15.381 16.564-39.583 3.549-56.32l-3.549-4.020-229.21-229.243 229.21-229.243c15.381-15.381 16.564-39.583 3.549-56.32l-3.549-4.020c-15.381-15.381-39.583-16.564-56.32-3.549l-4.020 3.549-259.413 259.413c-7.69 7.69-11.831 17.586-12.423 27.651v0z" />
<glyph unicode="&#xe910;" glyph-name="uniE910" d="M415.536 387.376h453.547c23.564 0 42.667 19.103 42.667 42.667s-19.103 42.667-42.667 42.667h-453.547c-23.564 0-42.667-19.103-42.667-42.667s19.103-42.667 42.667-42.667z" />
<glyph unicode="&#xe911;" glyph-name="uniE911" d="M911.75 468.402v-5.037c-0.493-8.388-3.451-16.658-8.873-23.632l-3.549-4.020-259.413-259.413c-16.662-16.662-43.677-16.662-60.34 0-15.381 15.381-16.564 39.583-3.549 56.32l3.549 4.020 229.21 229.243-229.21 229.243c-15.381 15.381-16.564 39.583-3.549 56.32l3.549 4.020c15.381 15.381 39.583 16.564 56.32 3.549l4.020-3.549 259.413-259.413c7.69-7.69 11.831-17.586 12.423-27.651v0z" />
<glyph unicode="&#xe912;" glyph-name="uniE912" d="M644.304 508.55h-453.547c-23.564 0-42.667-19.103-42.667-42.667s19.103-42.667 42.667-42.667h453.547c23.564 0 42.667 19.103 42.667 42.667s-19.103 42.667-42.667 42.667z" />
<glyph unicode="&#xe913;" glyph-name="uniE913" d="M509.481 829.793h5.037c8.388-0.493 16.658-3.451 23.632-8.873l4.020-3.549 259.413-259.413c16.662-16.662 16.662-43.677 0-60.34-15.381-15.381-39.583-16.564-56.32-3.549l-4.020 3.549-229.243 229.21-229.243-229.21c-15.381-15.381-39.583-16.564-56.32-3.549l-4.020 3.549c-15.381 15.381-16.564 39.583-3.549 56.32l3.549 4.020 259.413 259.413c7.69 7.69 17.586 11.831 27.651 12.423v0z" />
<glyph unicode="&#xe914;" glyph-name="uniE914" d="M469.333 562.347v-453.547c0-23.564 19.103-42.667 42.667-42.667s42.667 19.103 42.667 42.667v453.547c0 23.564-19.103 42.667-42.667 42.667s-42.667-19.103-42.667-42.667z" />
<glyph unicode="&#xe915;" glyph-name="uniE915" d="M664.812 302.152c15.552 0 28.405-11.557 30.44-26.551l0.28-4.169v-189.577c0-43.027-31.91-78.928-73.26-82.25l-6.271-0.251h-208.009c-42.213 0-76.157 33.861-79.294 76.104l-0.237 6.396v189.577c0 16.966 13.754 30.72 30.72 30.72 15.552 0 28.405-11.557 30.44-26.551l0.28-4.169v-189.577c0-10.68 6.74-19.014 14.952-20.734l3.138-0.327h208.009c8.515 0 16.186 7.134 17.786 17.169l0.305 3.891v189.577c0 16.966 13.754 30.72 30.72 30.72zM735.311 740.205c27.026 0 48.981-21.886 48.981-48.947v0-226.645c0-27.043-21.938-48.981-48.981-48.981v0h-446.635c-27.061 0-48.947 21.956-48.947 48.981v0 226.645c0 27.043 21.904 48.947 48.947 48.947v0zM715.989 671.957h-408.021v-188.032h408.021v188.032z" />
<glyph unicode="&#xe916;" glyph-name="uniE916" d="M798.45 866.14c66.033 0 119.23-53.949 122.946-121.101l0.207-7.514v-566.613c0-38.534-28.589-70.871-65.868-74.168l-6.29-0.277h-81.886c-18.851 0-34.133 15.282-34.133 34.133 0 17.401 13.021 31.761 29.852 33.867l4.282 0.266h81.886c1.345 0 3.028 1.5 3.648 4.063l0.243 2.115v566.613c0 31.783-22.186 57.196-49.674 60.076l-5.212 0.272h-572.894c-28.085 0-51.923-23.544-54.631-54.467l-0.256-5.881v-566.613c0-3.081 1.404-5.187 2.834-5.905l1.057-0.273h83.217c18.851 0 34.133-15.282 34.133-34.133 0-17.401-13.021-31.761-29.852-33.867l-4.282-0.266h-83.217c-38.208 0-68.784 30.301-71.897 68.083l-0.261 6.362v566.613c0 68.074 50.839 124.454 115.871 128.394l7.282 0.22h572.894zM725.538 325.721c16.966 0 30.72-13.754 30.72-30.72 0-15.552-11.557-28.405-26.551-30.44l-4.169-0.28h-427.076c-16.966 0-30.72 13.754-30.72 30.72 0 15.552 11.557 28.405 26.551 30.44l4.169 0.28h427.076z" />
<glyph unicode="&#xe917;" glyph-name="uniE917" d="M252.587 468.053c21.881 0 39.915-16.471 42.38-37.691l0.287-4.976v-187.733c0-23.564-19.103-42.667-42.667-42.667-21.881 0-39.915 16.471-42.38 37.691l-0.287 4.976v187.733c0 23.564 19.103 42.667 42.667 42.667zM512 468.053c21.881 0 39.915-16.471 42.38-37.691l0.287-4.976v-187.733c0-23.564-19.103-42.667-42.667-42.667-21.881 0-39.915 16.471-42.38 37.691l-0.287 4.976v187.733c0 23.564 19.103 42.667 42.667 42.667zM771.413 468.053c21.881 0 39.915-16.471 42.38-37.691l0.287-4.976v-187.733c0-23.564-19.103-42.667-42.667-42.667-21.881 0-39.915 16.471-42.38 37.691l-0.287 4.976v187.733c0 23.564 19.103 42.667 42.667 42.667z" />
<glyph unicode="&#xe918;" glyph-name="uniE918" d="M856.747 135.253c23.564 0 42.667-19.103 42.667-42.667s-19.103-42.667-42.667-42.667v0h-689.493c-23.564 0-42.667 19.103-42.667 42.667s19.103 42.667 42.667 42.667v0zM534.71 823.321l344.747-216.747c36.24-22.785 20.098-78.788-22.71-78.788h-689.493c-42.807 0-58.95 56.003-22.71 78.788l344.747 216.747c13.882 8.728 31.537 8.728 45.419 0zM512 736.801l-196.721-123.681h393.443l-196.721 123.681z" />
<glyph unicode="&#xe919;" glyph-name="uniE919" d="M938.667 257.939c21.881 0 39.915-16.471 42.38-37.691l0.287-4.976v-116.364c0-63.965-49.905-116.239-112.916-120.023l-7.327-0.219h-116.364c-23.564 0-42.667 19.103-42.667 42.667 0 21.881 16.471 39.915 37.691 42.38l4.976 0.287h116.364c17.812 0 32.485 13.303 34.637 30.527l0.272 4.382v116.364c0 23.564 19.103 42.667 42.667 42.667zM85.333 257.939c21.881 0 39.915-16.471 42.38-37.691l0.287-4.976v-116.364c0-17.812 13.303-32.485 30.527-34.637l4.382-0.272h116.364c23.564 0 42.667-19.103 42.667-42.667 0-21.881-16.471-39.915-37.691-42.38l-4.976-0.287h-116.364c-63.965 0-116.239 49.905-120.023 112.916l-0.219 7.327v116.364c0 23.564 19.103 42.667 42.667 42.667zM279.273 917.333c23.564 0 42.667-19.103 42.667-42.667 0-21.881-16.471-39.915-37.691-42.38l-4.976-0.287h-116.364c-17.812 0-32.485-13.303-34.637-30.527l-0.272-4.382v-116.364c0-23.564-19.103-42.667-42.667-42.667-21.881 0-39.915 16.471-42.38 37.691l-0.287 4.976v116.364c0 63.965 49.905 116.239 112.916 120.023l7.327 0.219h116.364zM861.091 917.333c63.965 0 116.239-49.905 120.023-112.916l0.219-7.327v-116.364c0-23.564-19.103-42.667-42.667-42.667-21.881 0-39.915 16.471-42.38 37.691l-0.287 4.976v116.364c0 17.812-13.303 32.485-30.527 34.637l-4.382 0.272h-116.364c-23.564 0-42.667 19.103-42.667 42.667 0 21.881 16.471 39.915 37.691 42.38l4.976 0.287h116.364z" />
<glyph unicode="&#xe91a;" glyph-name="uniE91A" d="M889.437 490.667c23.564 0 42.667-19.103 42.667-42.667 0-21.881-16.471-39.915-37.691-42.38l-4.976-0.287h-761.437c-23.564 0-42.667 19.103-42.667 42.667 0 21.881 16.471 39.915 37.691 42.38l4.976 0.287h761.437z" />
<glyph unicode="&#xe91b;" glyph-name="uniE91B" d="M515.324-6.042c-90.24 0-163.669 73.429-163.669 163.669 0 23.595 19.072 42.667 42.667 42.667s42.667-19.072 42.667-42.667c0-43.221 35.115-78.336 78.336-78.336s78.336 35.115 78.336 78.336c0 23.595 19.072 42.667 42.667 42.667s42.667-19.072 42.667-42.667c0-90.24-73.429-163.669-163.669-163.669z" />
<glyph unicode="&#xe91c;" glyph-name="uniE91C" d="M793.084 155.516h-553.344c-24.192 0-46.251 12.331-58.88 32.981s-13.568 45.867-2.56 67.456l8.149 15.829c31.787 61.995 48.597 131.669 48.597 201.429v49.408c0 140.629 103.68 257.493 238.677 278.144v31.232c0 23.595 19.115 42.667 42.667 42.667 23.595 0 42.667-19.072 42.667-42.667v-70.699c0-23.595-19.072-42.667-42.667-42.667-108.075 0-196.011-87.936-196.011-196.011v-49.408c0-80.256-18.645-160.384-53.973-232.363h500.011c-35.328 72.021-54.016 152.149-54.016 232.363v49.408c0 57.259-24.96 111.531-68.48 148.864-17.877 15.36-19.925 42.325-4.608 60.203 15.36 17.835 42.325 19.925 60.16 4.565 62.421-53.589 98.261-131.413 98.261-213.632v-49.408c0-69.717 16.853-139.392 48.64-201.472l8.107-15.787c11.051-21.504 10.112-46.72-2.517-67.371-12.629-20.693-34.645-33.067-58.88-33.067v0z" />
<glyph unicode="&#xe91d;" glyph-name="uniE91D" d="M277.333 277.333c35.346 0 64 28.654 64 64s-28.654 64-64 64c-35.346 0-64-28.654-64-64s28.654-64 64-64zM746.667 277.333c35.346 0 64 28.654 64 64s-28.654 64-64 64c-35.346 0-64-28.654-64-64s28.654-64 64-64zM597.333 320c23.564 0 42.667-19.103 42.667-42.667 0-21.881-16.471-39.915-37.691-42.38l-4.976-0.287h-170.667c-23.564 0-42.667 19.103-42.667 42.667 0 21.881 16.471 39.915 37.691 42.38l4.976 0.287h170.667z" />
<glyph unicode="&#xe91e;" glyph-name="uniE91E" d="M837.291 576c86.296 0 156.245-69.931 156.245-156.245v0-274.944c0-23.564-19.103-42.667-42.667-42.667v0l-117.734 0.013v-88.363c0-23.595-28.928-42.667-64.64-42.667-35.755 0-64.683 19.072-64.683 42.667l-0.026 88.393-382.629-0.005c0.013-0.356 0.020-0.713 0.020-1.071v-88.32c0-23.595-28.885-42.667-64.64-42.667-35.712 0-64.64 19.072-64.64 42.667v88.32l0.060 1.075-106.624-0.043c-21.881 0-39.915 16.471-42.38 37.691l-0.287 4.976v274.944c0 86.327 69.919 156.245 156.245 156.245v0zM837.291 490.667h-638.379c-39.199 0-70.912-31.713-70.912-70.912v0l-0.013-232.269h780.203l0.013 232.269c0 37.119-28.486 67.551-64.792 70.652v0l-6.12 0.26zM526.212 917.333c150.498 0 250.703-26.572 309.922-73.682 38.497-30.625 54.424-64.553 56.377-92.013l0.208-5.782v-82.294c0-23.564-19.103-42.667-42.667-42.667-21.881 0-39.915 16.471-42.38 37.691l-0.287 4.976v82.294c0 3.824-4.903 15.524-24.376 31.015-41.98 33.396-123.936 55.129-256.798 55.129s-214.817-21.732-256.798-55.129c-17.703-14.083-23.364-25.033-24.247-29.78l-0.129-1.235v-77.771c0-23.564-19.103-42.667-42.667-42.667-21.881 0-39.915 16.471-42.38 37.691l-0.287 4.976v77.771c0 28.379 15.337 64.982 56.584 97.795 59.22 47.111 159.424 73.682 309.922 73.682z" />
<glyph unicode="&#xe91f;" glyph-name="uniE91F" d="M140.514 402.202c16.662 16.662 43.677 16.662 60.34 0 46.612-46.612 122.211-46.612 168.823 0 8.972 8.972 20.946 13.113 32.689 12.423l5.013-0.592c8.293-1.479 16.234-5.423 22.642-11.831 46.612-46.612 122.211-46.612 168.823 0 8.972 8.972 20.946 13.113 32.689 12.423l5.013-0.592c8.293-1.479 16.234-5.423 22.642-11.831 46.611-46.611 122.244-46.611 168.813-0.010 16.657 16.668 43.672 16.677 60.34 0.020s16.677-43.672 0.020-60.34c-70.478-70.526-179.697-78.838-259.337-24.944-68.97-46.692-160.166-46.701-229.169 0.001-79.606-53.896-188.813-45.593-259.34 24.933-16.662 16.662-16.662 43.677 0 60.34zM547.444 859.042l3.17-4.438 13.811-22.839c10.244-17.321 20.49-35.401 30.094-53.41 4.859-9.111 9.44-17.995 13.696-26.598 21.674-43.802 33.755-76.656 33.755-102.35 0-70.443-57.107-127.531-127.531-127.531-70.456 0-127.573 57.077-127.573 127.531 0 25.698 12.088 58.553 33.774 102.357 4.259 8.602 8.842 17.487 13.703 26.598 6.406 12.006 13.098 24.044 19.884 35.867l16.937 28.779 7.107 11.603c15.734 25.143 51.13 26.618 69.172 4.429zM514.431 747.091l-11.288-21.263-6.027-11.923-6.772-14.118c-11.537-24.878-18.143-43.84-18.143-50.38 0-23.312 18.899-42.197 42.24-42.197 23.302 0 42.197 18.889 42.197 42.197 0 6.544-6.603 25.507-18.135 50.387l-6.769 14.119-6.024 11.923-6.484 12.364-4.794 8.892z" />
<glyph unicode="&#xe920;" glyph-name="uniE920" d="M815.492 147.947h-602.155v344.619c0 12.937 10.487 23.424 23.381 23.424h97.707c23.564 0 42.667 19.103 42.667 42.667s-19.103 42.667-42.667 42.667h-97.707c-60.023 0-108.715-48.692-108.715-108.757v-387.285c0-23.564 19.103-42.667 42.667-42.667h687.488c23.564 0 42.667 19.103 42.667 42.667v387.285c0 60.076-48.617 108.757-108.672 108.757h-96.683c-23.564 0-42.667-19.103-42.667-42.667s19.103-42.667 42.667-42.667h96.683c12.901 0 23.339-10.451 23.339-23.424v-344.619z" />
<glyph unicode="&#xe921;" glyph-name="uniE921" d="M710.793 874.645c23.564 0 42.667-19.103 42.667-42.667v0l-0.030-62.677 38.699-0.026c60.055 0 108.757-48.681 108.757-108.757v-534.528c0-60.076-48.703-108.757-108.757-108.757h-555.392c-60.055 0-108.715 48.681-108.715 108.757v534.528c0 60.076 48.66 108.757 108.715 108.757l38.656 0.026 0.026 62.677c0 21.881 16.471 39.915 37.691 42.38l4.976 0.287c23.564 0 42.667-19.103 42.667-42.667v0l-0.026-62.677h307.371l0.030 62.677c0 21.881 16.471 39.915 37.691 42.38zM275.392 683.968l-38.656-0.026c-12.918 0-23.381-10.468-23.381-23.424v-534.528c0-12.956 10.463-23.424 23.381-23.424h555.392c12.935 0 23.424 10.484 23.424 23.424v534.528c0 12.94-10.489 23.424-23.424 23.424l-38.699 0.026 0.030-16.981c0-21.881-16.471-39.915-37.691-42.38l-4.976-0.287c-23.564 0-42.667 19.103-42.667 42.667v0l-0.030 16.981h-307.371l0.026-16.981c0-21.881-16.471-39.915-37.691-42.38l-4.976-0.287c-23.564 0-42.667 19.103-42.667 42.667v0l-0.026 16.981z" />
<glyph unicode="&#xe922;" glyph-name="uniE922" d="M426.667 320c23.564 0 42.667-19.103 42.667-42.667v-42.667c0-23.564-19.103-42.667-42.667-42.667h-85.333c-23.564 0-42.667 19.103-42.667 42.667v42.667c0 23.564 19.103 42.667 42.667 42.667h85.333zM682.667 533.333c23.564 0 42.667-19.103 42.667-42.667v-42.667c0-23.564-19.103-42.667-42.667-42.667h-85.333c-23.564 0-42.667 19.103-42.667 42.667v42.667c0 23.564 19.103 42.667 42.667 42.667h85.333zM426.667 533.333c23.564 0 42.667-19.103 42.667-42.667v-42.667c0-23.564-19.103-42.667-42.667-42.667h-85.333c-23.564 0-42.667 19.103-42.667 42.667v42.667c0 23.564 19.103 42.667 42.667 42.667h85.333z" />
<glyph unicode="&#xe923;" glyph-name="uniE923" d="M710.793 874.645c23.564 0 42.667-19.103 42.667-42.667v0l-0.030-62.677 38.699-0.026c60.055 0 108.757-48.681 108.757-108.757v-534.528c0-60.076-48.703-108.757-108.757-108.757h-555.392c-60.055 0-108.715 48.681-108.715 108.757v534.528c0 60.076 48.66 108.757 108.715 108.757l38.656 0.026 0.026 62.677c0 21.881 16.471 39.915 37.691 42.38l4.976 0.287c23.564 0 42.667-19.103 42.667-42.667v0l-0.026-62.677h307.371l0.030 62.677c0 21.881 16.471 39.915 37.691 42.38zM275.392 683.968l-38.656-0.026c-12.918 0-23.381-10.468-23.381-23.424v-534.528c0-12.956 10.463-23.424 23.381-23.424h555.392c12.935 0 23.424 10.484 23.424 23.424v534.528c0 12.94-10.489 23.424-23.424 23.424l-38.699 0.026 0.030-16.981c0-21.881-16.471-39.915-37.691-42.38l-4.976-0.287c-23.564 0-42.667 19.103-42.667 42.667v0l-0.030 16.981h-307.371l0.026-16.981c0-21.881-16.471-39.915-37.691-42.38l-4.976-0.287c-23.564 0-42.667 19.103-42.667 42.667v0l-0.026 16.981zM682.667 320c23.564 0 42.667-19.103 42.667-42.667v-42.667c0-23.564-19.103-42.667-42.667-42.667h-85.333c-23.564 0-42.667 19.103-42.667 42.667v42.667c0 23.564 19.103 42.667 42.667 42.667h85.333z" />
<glyph unicode="&#xe924;" glyph-name="uniE924" d="M341.333 533.333h85.333c23.564 0 42.667-19.103 42.667-42.667v-42.667c0-23.564-19.103-42.667-42.667-42.667h-85.333c-23.564 0-42.667 19.103-42.667 42.667v42.667c0 23.564 19.103 42.667 42.667 42.667zM426.667 320c23.564 0 42.667-19.103 42.667-42.667v-42.667c0-23.564-19.103-42.667-42.667-42.667h-85.333c-23.564 0-42.667 19.103-42.667 42.667v42.667c0 23.564 19.103 42.667 42.667 42.667h85.333zM682.667 533.333c23.564 0 42.667-19.103 42.667-42.667v-42.667c0-23.564-19.103-42.667-42.667-42.667h-85.333c-23.564 0-42.667 19.103-42.667 42.667v42.667c0 23.564 19.103 42.667 42.667 42.667h85.333z" />
<glyph unicode="&#xe925;" glyph-name="uniE925" d="M710.17 435.942c23.564 0 42.667-19.103 42.667-42.667v0-185.344c0-23.564-19.103-42.667-42.667-42.667-0.245 0-0.489 0.002-0.732 0.006l-184.612 0.007c-23.564 0-42.667 19.103-42.667 42.667s19.103 42.667 42.667 42.667v0l142.677 0.030v142.635c0 21.881 16.471 39.915 37.691 42.38z" />
<glyph unicode="&#xe926;" glyph-name="uniE926" d="M710.793 874.645c23.564 0 42.667-19.103 42.667-42.667v0l-0.030-62.677 38.699-0.026c60.055 0 108.757-48.681 108.757-108.757v-534.528c0-60.076-48.703-108.757-108.757-108.757h-555.392c-60.055 0-108.715 48.681-108.715 108.757v534.528c0 60.076 48.66 108.757 108.715 108.757l38.656 0.026 0.026 62.677c0 21.881 16.471 39.915 37.691 42.38l4.976 0.287c23.564 0 42.667-19.103 42.667-42.667v0l-0.026-62.677h307.371l0.030 62.677c0 21.881 16.471 39.915 37.691 42.38zM275.392 683.968l-38.656-0.026c-12.918 0-23.381-10.468-23.381-23.424v-534.528c0-12.956 10.463-23.424 23.381-23.424h555.392c12.935 0 23.424 10.484 23.424 23.424v534.528c0 12.94-10.489 23.424-23.424 23.424l-38.699 0.026 0.030-16.981c0-21.881-16.471-39.915-37.691-42.38l-4.976-0.287c-23.564 0-42.667 19.103-42.667 42.667v0l-0.030 16.981h-307.371l0.026-16.981c0-21.881-16.471-39.915-37.691-42.38l-4.976-0.287c-23.564 0-42.667 19.103-42.667 42.667v0l-0.026 16.981z" />
<glyph unicode="&#xe927;" glyph-name="uniE927" d="M512 270.592c57.088 0 103.509 46.421 103.509 103.467s-46.421 103.467-103.509 103.467c-57.045 0-103.467-46.421-103.467-103.467s46.421-103.467 103.467-103.467zM512 562.859c104.107 0 188.843-84.736 188.843-188.8 0-104.107-84.736-188.8-188.843-188.8-104.064 0-188.8 84.693-188.8 188.8 0 104.064 84.736 188.8 188.8 188.8zM464.375 704.465v0c-23.595 0-42.667-19.072-42.667-42.667s19.072-42.667 42.667-42.667h95.275c23.595 0 42.667 19.072 42.667 42.667s-19.072 42.667-42.667 42.667z" />
<glyph unicode="&#xe928;" glyph-name="uniE928" d="M896 185.259c0-34.133-27.733-61.867-61.867-61.867h-644.267c-34.133 0-61.867 27.733-61.867 61.867v372.693c0 34.133 27.733 61.909 61.867 61.909h122.283c23.936 0 44.757 15.317 51.925 38.059l24.704 78.421c5.973 18.944 23.296 31.659 43.179 31.659h160.085c19.883 0 37.205-12.715 43.179-31.659l24.747-78.336c7.168-22.827 27.989-38.144 51.925-38.144h122.24c34.133 0 61.867-27.776 61.867-61.909v-372.693zM834.133 705.195h-99.584l-17.92 56.832c-17.237 54.613-67.285 91.307-124.587 91.307h-160.085c-57.301 0-107.349-36.693-124.587-91.307l-17.877-56.832h-99.627c-81.152 0-147.2-66.048-147.2-147.243v-372.693c0-81.152 66.048-147.2 147.2-147.2h644.267c81.152 0 147.2 66.048 147.2 147.2v372.693c0 81.195-66.048 147.243-147.2 147.243v0z" />
<glyph unicode="&#xe929;" glyph-name="candado" d="M514.46 874.667c104.862 0 183.958-83.748 183.958-189.87v0l-0.007-75.304 20.93-0.004c59.706 0 108.102-48.396 108.102-108.102v-371.952c0-59.738-48.386-108.102-108.102-108.102h-414.972c-59.716 0-108.102 48.364-108.102 108.102v371.952c0 59.706 48.396 108.102 108.102 108.102l22.799 0.004 0.014 75.946c1.554 102.63 77.878 184.297 178.102 189.012zM514.46 789.814c-57.458 0-101.523-45.435-102.43-105.017v0l0.002-75.304h201.515l0.018 75.304c0 55.38-35.604 97.604-85.466 104.137l-6.886 0.667zM719.341 524.637h-414.972c-12.843 0-23.25-10.407-23.25-23.25v-371.952c0-12.867 10.388-23.25 23.25-23.25h414.972c12.862 0 23.25 10.383 23.25 23.25v371.952c0 12.843-10.407 23.25-23.25 23.25zM511.863 446.475c72.349 0 131.055-58.706 131.055-131.055s-58.706-131.055-131.055-131.055c-72.38 0-131.055 58.694-131.055 131.055s58.675 131.055 131.055 131.055zM511.863 361.622c-25.511 0-46.202-20.698-46.202-46.202s20.691-46.202 46.202-46.202c25.486 0 46.202 20.716 46.202 46.202s-20.716 46.202-46.202 46.202z" />
<glyph unicode="&#xe92a;" glyph-name="uniE92A" d="M445.075 746.671h160.884l76.732-209.008c8.121-22.121 32.637-33.469 54.757-25.349s33.469 32.637 25.349 54.757l-86.997 236.971c-6.167 16.797-22.159 27.962-40.053 27.962h-220.459c-17.894 0-33.886-11.165-40.053-27.962l-86.997-236.971c-8.121-22.121 3.228-46.636 25.349-54.757s46.636 3.228 54.757 25.349z" />
<glyph unicode="&#xe92b;" glyph-name="uniE92B" d="M824.152 509.7h-321.888c-23.564 0-42.667 19.103-42.667 42.667 0 21.881 16.471 39.915 37.691 42.38l4.976 0.287h378.116c26.584 0 46.262-23.873 42.146-49.36l-1.055-4.792-115.157-411.989c-4.684-16.758-18.993-28.816-35.937-30.87l-5.155-0.311h-479.36c-17.399 0-32.863 10.533-39.403 26.296l-1.687 4.881-115.2 411.989c-6.346 22.694 6.907 46.235 29.601 52.58 21.073 5.892 42.876-5.114 50.964-24.886l1.616-4.715 106.482-380.812h414.611l91.305 326.656h-321.888z" />
<glyph unicode="&#xe92c;" glyph-name="uniE92C" d="M351.718 380.365c23.564 0 42.667-19.103 42.667-42.667 0-21.881-16.471-39.915-37.691-42.38l-4.976-0.287h-70.656c-23.564 0-42.667 19.103-42.667 42.667 0 21.881 16.471 39.915 37.691 42.38l4.976 0.287h70.656zM550.302 380.365c23.564 0 42.667-19.103 42.667-42.667 0-21.881-16.471-39.915-37.691-42.38l-4.976-0.287h-70.656c-23.564 0-42.667 19.103-42.667 42.667 0 21.881 16.471 39.915 37.691 42.38l4.976 0.287h70.656zM901.973 536.094c23.564 0 42.667-19.103 42.667-42.667 0-21.881-16.471-39.915-37.691-42.38l-4.976-0.287h-773.973c-23.564 0-42.667 19.103-42.667 42.667 0 21.881 16.471 39.915 37.691 42.38l4.976 0.287h773.973z" />
<glyph unicode="&#xe92d;" glyph-name="uniE92D" d="M826.735 314.645l4.020-3.549 101.376-101.376c15.381-15.381 16.564-39.583 3.549-56.32l-3.549-4.020-101.376-101.376c-16.662-16.662-43.677-16.662-60.34 0-15.381 15.381-16.564 39.583-3.549 56.32l3.549 4.020 71.185 71.24-71.185 71.172c-15.381 15.381-16.564 39.583-3.549 56.32l3.549 4.020c15.381 15.381 39.583 16.564 56.32 3.549zM127.991 598.665c21.881 0 39.915-16.471 42.38-37.691l0.287-4.976v-295.979c0-19.248 14.443-35.172 33.066-37.508l4.737-0.295h499.499c23.564 0 42.667-19.103 42.667-42.667 0-21.881-16.471-39.915-37.691-42.38l-4.976-0.287h-499.499c-65.552 0-119.18 51.286-122.927 115.903l-0.209 7.233v295.979c0 23.564 19.103 42.667 42.667 42.667zM821.483 773.282c65.563 0 119.181-51.257 122.927-115.9l0.209-7.236v-282.368c0-23.564-19.103-42.667-42.667-42.667-21.881 0-39.915 16.471-42.38 37.691l-0.287 4.976v282.368c0 19.27-14.428 35.175-33.062 37.508l-4.74 0.295h-505.088c-23.564 0-42.667 19.103-42.667 42.667 0 21.881 16.471 39.915 37.691 42.38l4.976 0.287h505.088zM259.546 862.157c15.381-15.381 16.564-39.583 3.549-56.32l-3.549-4.020-71.215-71.193 71.215-71.219c15.381-15.381 16.564-39.583 3.549-56.32l-3.549-4.020c-15.381-15.381-39.583-16.564-56.32-3.549l-4.020 3.549-101.376 101.376c-15.381 15.381-16.564 39.583-3.549 56.32l3.549 4.020 101.376 101.376c16.662 16.662 43.677 16.662 60.34 0z" />
<glyph unicode="&#xe92e;" glyph-name="uniE92E" d="M595.422 519.274c24.742 0 44.8-20.058 44.8-44.8s-20.058-44.8-44.8-44.8c-24.742 0-44.8 20.058-44.8 44.8s20.058 44.8 44.8 44.8zM827.66 705.352c16.155-16.144 17.405-41.556 3.746-59.135l-3.725-4.222-69.216-69.261c-17.49-17.501-45.856-17.51-63.357-0.020-16.155 16.144-17.405 41.556-3.746 59.135l3.725 4.222 69.216 69.261c17.49 17.501 45.856 17.51 63.357 0.020z" />
<glyph unicode="&#xe92f;" glyph-name="uniE92F" d="M291.266 770.991c100.288 0 187.561-42.999 192.917-113.717l0.26-6.93v-144.122l-0.177-4.757 0.177-3.11v-144.122l-0.177-4.278 0.177-2.8v-144.122c0-74.787-89.679-120.646-193.133-120.646-100.154 0-187.377 42.942-192.9 113.499l-0.277 7.147v144.122l0.171 2.886-0.171 4.193v144.122l0.171 3.195-0.171 4.672v144.122l0.26 6.929c5.356 70.712 92.621 113.717 192.872 113.717zM394.882 250.902c-30.29-11.272-66.023-17.313-103.571-17.313-37.576 0-73.331 6.044-103.635 17.324l0.057-47.878c0-8.996 43.129-31.046 103.578-31.046 57.232 0 98.946 19.791 103.178 29.523l0.355 1.524 0.038 47.867zM709.965 822.603l4.221-3.728 227.002-227.046c16.146-16.149 17.388-41.558 3.725-59.131l-3.726-4.22-318.035-318.080c-17.494-17.497-45.86-17.499-63.357-0.004-16.151 16.149-17.395 41.56-3.731 59.136l3.727 4.221 286.333 286.426-163.61 163.654-56.13-56.154c-16.146-16.154-41.557-17.403-59.135-3.742l-4.221 3.726c-16.154 16.146-17.403 41.557-3.742 59.135l3.726 4.221 87.808 87.853c16.15 16.158 41.569 17.403 59.147 3.733zM394.882 402.89c-30.29-11.272-66.023-17.313-103.571-17.313-37.576 0-73.331 6.044-103.635 17.324l0.057-48.666c0-8.996 43.129-31.046 103.578-31.046 57.232 0 98.946 19.791 103.178 29.523l0.355 1.524 0.038 48.655zM394.875 547.041c-30.296-11.264-66.041-17.298-103.609-17.298-37.554 0-73.289 6.035-103.579 17.299l0.046-40.819c0-8.996 43.129-31.046 103.578-31.046 57.232 0 98.946 19.791 103.178 29.523l0.355 1.524 0.032 40.818zM291.266 681.391c-60.441 0-103.533-22.027-103.533-31.046 0-8.976 43.106-31.002 103.533-31.002 60.464 0 103.578 22.025 103.578 31.002 0 9.020-43.099 31.046-103.578 31.046z" />
<glyph unicode="&#xe930;" glyph-name="uniE930" d="M407.292 310.882c23.595 0 42.88-19.285 42.88-42.88s-19.285-42.923-42.88-42.923c-23.595 0-42.88 19.328-42.88 42.923s19.285 42.88 42.88 42.88zM224.875 312.623c23.595 0 42.667-19.072 42.667-42.667s-19.072-42.667-42.667-42.667h-96.896c-23.552 0-42.667 19.072-42.667 42.667s19.115 42.667 42.667 42.667h96.896zM686.541 312.623c23.595 0 42.667-19.072 42.667-42.667s-19.072-42.667-42.667-42.667h-96.853c-23.552 0-42.667 19.072-42.667 42.667s19.115 42.667 42.667 42.667h96.853z" />
<glyph unicode="&#xe931;" glyph-name="uniE931" d="M170.667 153.873h473.216v232.192h-473.216v-232.192zM686.549 471.398c23.595 0 42.667-19.072 42.667-42.667v0-317.525c0-23.595-19.072-42.667-42.667-42.667v0h-558.549c-23.595 0-42.667 19.072-42.667 42.667v0 317.525c0 23.595 19.072 42.667 42.667 42.667v0zM195.174 819.516c16.64 16.64 43.648 16.64 60.331 0 16.683-16.683 16.683-43.691 0-60.373v0l-20.48-20.437h587.392c64.085 0 116.267-52.181 116.267-116.309v0-280.576c0-64.128-52.181-116.267-116.267-116.267-23.595 0-42.667 19.072-42.667 42.667 0 23.552 19.072 42.667 42.667 42.667 17.024 0 30.933 13.867 30.933 30.933v0 280.576c0 17.109-13.909 30.976-30.933 30.976v0h-587.392l20.48-20.437c16.683-16.683 16.683-43.691 0-60.373-8.32-8.32-19.243-12.501-30.165-12.501s-21.845 4.181-30.165 12.501v0l-93.312 93.312c-16.64 16.683-16.64 43.648 0 60.331v0z" />
<glyph unicode="&#xe932;" glyph-name="uniE932" d="M139.318 618.667c21.946 0 39.737-17.791 39.737-39.737v0l-0.026-38.94 34.073 29.106c15.398 13.164 37.955 12.506 52.551-0.793l3.474-3.587c14.261-16.681 12.3-41.764-4.381-56.026v0l-64.257-54.929 64.275-54.962c15.398-13.164 18.253-35.55 7.384-52.036l-3.004-3.99c-14.261-16.681-39.345-18.642-56.026-4.381v0l-34.091 29.182 0.026-39.034c0-20.379-15.34-37.174-35.103-39.47l-4.634-0.267c-21.946 0-39.737 17.791-39.737 39.737v0l-0.039 38.949-33.981-29.097c-15.398-13.164-37.955-12.506-52.551 0.793l-3.474 3.587c-14.261 16.681-12.3 41.764 4.381 56.026v0l64.25 54.962-64.232 54.929c-15.398 13.164-18.253 35.55-7.384 52.036l3.004 3.99c14.261 16.681 39.345 18.642 56.026 4.381v0l33.963-28.978 0.039 38.812c0 20.379 15.34 37.174 35.103 39.47zM538.631 618.667c21.946 0 39.737-17.791 39.737-39.737v0l-0.022-38.897 34.020 29.061c15.396 13.166 37.954 12.51 52.552-0.787l3.475-3.587c14.263-16.679 12.305-41.763-4.374-56.026v0l-64.297-54.932 64.31-54.965c15.396-13.166 18.249-35.552 7.379-52.037l-3.004-3.989c-14.263-16.679-39.347-18.638-56.026-4.374v0l-34.034 29.136 0.022-38.991c0-20.379-15.34-37.174-35.103-39.47l-4.634-0.267c-21.946 0-39.737 17.791-39.737 39.737v0l-0.035 38.949-33.981-29.094c-15.396-13.166-37.954-12.51-52.552 0.787l-3.475 3.587c-14.263 16.679-12.305 41.763 4.374 56.026v0l64.258 54.965-64.244 54.932c-15.396 13.166-18.249 35.552-7.379 52.037l3.004 3.989c14.263 16.679 39.347 18.638 56.026 4.374v0l33.968-29.018 0.035 38.855c0 20.379 15.34 37.174 35.103 39.47z" />
<glyph unicode="&#xe933;" glyph-name="uniE933" d="M770.037 205.009h203.179c25.19 0 45.611 18.755 45.611 41.891s-20.421 41.891-45.611 41.891h-203.179c-25.19 0-45.611-18.755-45.611-41.891s20.421-41.891 45.611-41.891z" />
<glyph unicode="&#xe934;" glyph-name="uniE934" d="M725.333 490.667c23.564 0 42.667-21.831 42.667-48.762 0-25.007-16.471-45.617-37.691-48.434l-4.976-0.328h-426.667c-23.564 0-42.667 21.831-42.667 48.762 0 25.007 16.471 45.617 37.691 48.434l4.976 0.328h426.667zM725.333 661.333c23.564 0 42.667-21.831 42.667-48.762 0-25.007-16.471-45.617-37.691-48.434l-4.976-0.328h-426.667c-23.564 0-42.667 21.831-42.667 48.762 0 25.007 16.471 45.617 37.691 48.434l4.976 0.328h426.667z" />
<glyph unicode="&#xe935;" glyph-name="uniE935" d="M810.667 874.667c68.168 0 123.89-54.332 127.783-122.834l0.217-7.668 0.074-435.151c-0.059-69.532-53.435-126.308-120.594-130.117l-7.48-0.192v-70.366c0-20.276-6.942-39.831-19.497-55.354l-4.969-5.626c-31.292-32.471-81.429-34.615-115.203-6.115l-5.471 5.034-132.108 132.34h-129.655c-21.881 0-39.915 16.794-42.38 38.43l-0.287 5.073c0 22.31 16.471 40.697 37.691 43.21l4.976 0.293h147.118c9.322 0 18.333-3.11 25.695-8.773l4.209-3.699 144.547-144.812v113.895c0 22.324 16.49 40.717 37.725 43.214l4.979 0.289 42.734-0.038c21.838-0.054 39.865 16.694 42.346 38.282l0.291 5.063-0.074 435.113c0 22.31-16.471 40.697-37.691 43.21l-4.976 0.293h-597.333c-21.881 0-39.915-16.794-42.38-38.43l-0.287-5.073v-435.030c0-22.31 16.471-40.697 37.691-43.21l4.976-0.293 37.677 0.293c23.564 0 42.667-19.477 42.667-43.503 0-22.31-16.471-40.697-37.691-43.21l-4.976-0.293-37.677-0.293c-68.168 0-123.89 54.332-127.783 122.841l-0.217 7.668v435.030c0 69.504 53.287 126.318 120.479 130.288l7.521 0.222h597.333z" />
<glyph unicode="&#xe936;" glyph-name="uniE936" d="M459.988 326.047c-10.065 0.592-19.961 4.733-27.651 12.423-1.133 1.133-2.19 2.315-3.169 3.537l-104.292 103.923c-16.695 16.629-16.749 43.644-0.119 60.34s43.644 16.749 60.34 0.119v0l77.538-77.206 176.209 176.133c15.381 15.381 39.583 16.564 56.32 3.549l4.020-3.549c16.662-16.662 16.662-43.677 0-60.34v0l-203.141-203.131-2.88-3.315c-7.675-7.706-17.562-11.866-27.627-12.478z" />
<glyph unicode="&#xe937;" glyph-name="uniE937" d="M499.231 886.791c8.313 2.607 17.225 2.607 25.538 0l303.36-95.147c17.791-5.58 29.898-22.066 29.898-40.711v-398.080c0-90.82-64.419-172.907-169.35-248.764-34.834-25.183-71.939-47.915-109.029-67.912l-18.758-9.871-21.831-10.838-9.639-4.497c-11.084-4.958-23.756-4.958-34.84 0l-9.639 4.497-21.831 10.838-18.758 9.871c-37.089 19.997-74.194 42.729-109.029 67.912-104.931 75.857-169.35 157.944-169.35 248.764v398.080c0 18.645 12.107 35.131 29.898 40.711l303.36 95.147zM512 801.364l-260.693-81.765v-366.746c0-55.526 49.341-118.4 134.010-179.609 31.526-22.791 65.521-43.618 99.531-61.955l9.484-5.047 17.667-9.030 17.667 9.030c3.093 1.624 6.257 3.307 9.484 5.047 34.011 18.337 68.006 39.164 99.531 61.955 84.669 61.21 134.010 124.083 134.010 179.609v366.746l-260.693 81.765z" />
<glyph unicode="&#xe938;" glyph-name="checkmark" d="M806.482 691.492c16.663 16.662 43.678 16.66 60.34-0.003s16.66-43.678-0.003-60.34v0l-433.733-433.747c-1.136-1.484-2.383-2.911-3.741-4.269-7.766-7.767-17.781-11.914-27.949-12.442-11.839-0.792-23.959 3.342-33.018 12.402-1.409 1.409-2.698 2.891-3.868 4.436l-224.027 224.079c-16.664 16.661-16.666 43.676-0.006 60.34s43.676 16.666 60.34 0.006v0l198.057-197.976z" />
<glyph unicode="&#xe939;" glyph-name="uniE939" d="M567.825 452.538v179.611c0 23.564-19.103 42.667-42.667 42.667s-42.667-19.103-42.667-42.667v-197.291c0-11.32 4.498-22.175 12.505-30.178l165.163-165.077c16.667-16.658 43.682-16.651 60.34 0.016s16.651 43.682-0.016 60.34l-152.658 152.579z" />
<glyph unicode="&#xe93a;" glyph-name="uniE93A" d="M525.141 874.667c242.913 0 439.808-196.895 439.808-439.808 0-242.92-196.901-439.851-439.808-439.851-242.878 0-439.808 196.944-439.808 439.851 0 242.899 196.923 439.808 439.808 439.808zM525.141 789.333c-195.758 0-354.475-158.705-354.475-354.475 0-195.779 158.726-354.517 354.475-354.517 195.776 0 354.475 158.723 354.475 354.517 0 195.785-158.689 354.475-354.475 354.475z" />
<glyph unicode="&#xe93b;" glyph-name="close_small3x" d="M642.775 611.827c9.119 9.12 23.904 9.12 33.024 0.001s9.12-23.904 0.001-33.024v0l-130.776-130.804 130.776-130.804c8.106-8.106 9.006-20.689 2.701-29.79l-2.702-3.234c-9.12-9.119-23.905-9.118-33.024 0.001v0l-130.775 130.803-130.803-130.798c-8.106-8.106-20.689-9.008-29.79-2.703l-3.234 2.702c-9.12 9.119-9.12 23.904-0.001 33.024v0l130.804 130.799-130.804 130.799c-8.106 8.106-9.006 20.689-2.701 29.79l2.702 3.234c9.12 9.119 23.905 9.118 33.024-0.001v0l130.803-130.798z" />
<glyph unicode="&#xe93c;" glyph-name="modal-close" d="M225.831 734.163c16.663 16.662 43.678 16.661 60.34-0.002v0l238.928-238.928 239.013 238.937c15.38 15.381 39.582 16.565 56.32 3.552l4.020-3.549c16.663-16.662 16.664-43.677 0.002-60.34v0l-238.982-239.015 238.982-238.981c15.38-15.381 16.562-39.583 3.547-56.32l-3.55-4.019c-16.663-16.662-43.678-16.661-60.34 0.002v0l-238.97 238.988-238.97-238.979c-15.38-15.381-39.582-16.565-56.32-3.552l-4.020 3.549c-16.663 16.662-16.664 43.677-0.002 60.34v0l238.939 239.015-238.939 238.964c-15.38 15.381-16.562 39.583-3.547 56.32z" />
<glyph unicode="&#xe93d;" glyph-name="uniE93D" d="M243.197 312.747v341.333c-0.159 27.522 10.521 53.741 29.692 73.138s45.262 30.384 72.533 30.543l263.004-0.001c23.564 0 42.667 19.103 42.667 42.667s-19.103 42.667-42.667 42.667h-263.253c-50.153-0.293-97.896-20.397-132.976-55.891s-54.622-83.468-54.335-133.371v-341.085c0-23.564 19.105-42.667 42.669-42.667s42.667 19.103 42.667 42.667z" />
<glyph unicode="&#xe93e;" glyph-name="uniE93E" d="M791.467 687.36c41.002 0 74.24-33.238 74.24-74.24v-485.547c0-41.002-33.238-74.24-74.24-74.24h-405.333c-41.002 0-74.24 33.238-74.24 74.24v485.547c0 41.002 33.238 74.24 74.24 74.24h405.333zM780.373 602.027h-383.147v-463.36h383.147v463.36z" />
<glyph unicode="&#xe93f;" glyph-name="uniE93F" d="M511.996 567.755c19.576 0 35.731-14.649 38.101-33.583l0.299-4.817-0.039-150.688 345.74-0.908c21.208-0.056 38.354-17.294 38.298-38.501-0.052-19.576-14.744-35.692-33.684-38.012l-4.818-0.286-345.537 0.95 0.039-280.894c0-21.208-17.192-38.4-38.4-38.4-19.576 0-35.731 14.649-38.101 33.583l-0.299 4.817-0.039 281.107-324.326 0.811c-21.208 0.056-38.354 17.294-38.298 38.501s17.294 38.354 38.502 38.298l324.122-0.853 0.039 150.475c0 21.208 17.192 38.4 38.4 38.4zM777.453 871.893c58.597-55.026 55.030-143.37-7.554-194.384-16.438-13.399-40.627-10.936-54.026 5.502-12.283 15.069-11.236 36.649 1.685 50.462l3.817 3.564c26.721 21.781 28.094 55.78 3.505 78.87-27.508 25.831-75.833 27.325-105.6 3.086-20.947-17.103-51.021-73.213-64.563-114.939-13.41-41.303-71.848-41.303-85.259 0.005-13.481 41.539-43.723 97.783-64.714 114.902-29.807 24.271-78.093 22.778-105.614-3.066-24.597-23.076-23.217-57.065 3.518-78.858 16.438-13.399 18.902-37.588 5.502-54.026s-37.588-18.902-54.026-5.502c-62.597 51.025-66.182 139.38-7.554 194.384 55.655 52.263 147.143 55.092 206.69 6.604 19.836-16.177 40.007-44.629 57.003-76.113l1.78-3.366 1.831 3.442c15.063 27.971 32.618 53.518 50.259 70.22l6.615 5.836c59.524 48.469 151.051 45.64 206.706-6.623z" />
<glyph unicode="&#xe940;" glyph-name="uniE940" d="M789.72 712.223h-555.418c-79.921 0-144.691-64.77-144.691-144.691v-440.218c0-79.921 64.77-144.691 144.691-144.691h555.418c79.921 0 144.691 64.77 144.691 144.691v440.218c0 79.921-64.77 144.691-144.691 144.691zM234.303 635.423h555.418c37.506 0 67.891-30.385 67.891-67.891v-440.218c0-37.506-30.385-67.891-67.891-67.891h-555.418c-37.506 0-67.891 30.385-67.891 67.891v440.218c0 37.506 30.385 67.891 67.891 67.891z" />
<glyph unicode="&#xe941;" glyph-name="uniE941" d="M688.073 522.782c16.683 16.683 16.683 43.648 0 60.331s-43.648 16.683-60.331 0v0l-237.696-237.653c-8.363-8.363-12.501-19.243-12.501-30.165s4.139-21.845 12.501-30.165c16.64-16.683 43.648-16.683 60.331 0v0zM492.612 537.156c0 31.232-25.429 56.661-56.619 56.661-31.232 0-56.619-25.429-56.619-56.661 0-31.189 25.387-56.619 56.619-56.619 31.189 0 56.619 25.429 56.619 56.619zM698.727 331.072c0 31.189-25.387 56.619-56.619 56.619-31.189 0-56.619-25.429-56.619-56.619s25.429-56.619 56.619-56.619c31.232 0 56.619 25.429 56.619 56.619z" />
<glyph unicode="&#xe942;" glyph-name="uniE942" d="M836.723 37.943v792.32c0 23.595-19.072 42.667-42.667 42.667h-138.965c-19.413 0-36.395-13.099-41.301-31.957-10.667-41.088-47.531-69.76-89.643-69.76s-78.976 28.672-89.643 69.76c-5.888 22.827-29.184 36.523-52.011 30.592-22.784-5.931-36.651-29.227-30.549-52.011 20.395-78.72 91.221-133.675 172.203-133.675 69.504 0 131.541 40.491 160.64 101.717h66.603v-706.987h-66.603c-29.099 61.269-91.136 101.76-160.64 101.76s-131.499-40.491-160.64-101.76h-66.56v749.653c0 23.595-19.115 42.667-42.667 42.667-23.595 0-42.667-19.072-42.667-42.667v-792.32c0-23.595 19.072-42.667 42.667-42.667h138.923c19.456 0 36.437 13.141 41.301 31.957 10.667 41.088 47.531 69.803 89.643 69.803s78.976-28.715 89.643-69.803c4.907-18.816 21.888-31.957 41.301-31.957h138.965c23.595 0 42.667 19.072 42.667 42.667z" />
<glyph unicode="&#xe943;" glyph-name="uniE943" d="M278.187 373.333h70.4c23.564 0 42.667-19.103 42.667-42.667 0-21.881-16.471-39.915-37.691-42.38l-4.976-0.287h-70.4c-23.564 0-42.667 19.103-42.667 42.667 0 21.881 16.471 39.915 37.691 42.38l4.976 0.287zM476.587 373.333h70.827c23.564 0 42.667-19.103 42.667-42.667 0-21.881-16.471-39.915-37.691-42.38l-4.976-0.287h-70.827c-23.564 0-42.667 19.103-42.667 42.667 0 21.881 16.471 39.915 37.691 42.38l4.976 0.287zM125.013 571.733h773.973c23.564 0 42.667-19.103 42.667-42.667 0-21.881-16.471-39.915-37.691-42.38l-4.976-0.287h-773.973c-23.564 0-42.667 19.103-42.667 42.667 0 21.881 16.471 39.915 37.691 42.38l4.976 0.287z" />
<glyph unicode="&#xe944;" glyph-name="uniE944" d="M818.347 766.293c68.1 0 123.307-55.206 123.307-123.307v-389.547c0-68.336-55.397-123.733-123.733-123.733h-612.267c-68.1 0-123.307 55.206-123.307 123.307v389.973c0 68.1 55.206 123.307 123.307 123.307h612.693zM818.347 680.96h-612.693c-20.972 0-37.973-17.001-37.973-37.973v-389.973c0-20.972 17.001-37.973 37.973-37.973h612.267c21.208 0 38.4 17.192 38.4 38.4v389.547c0 20.972-17.001 37.973-37.973 37.973z" />
<glyph unicode="&#xe945;" glyph-name="uniE945" d="M426.667 618.667c23.595 0 42.667-19.072 42.667-42.667v0-341.333c0-23.595-19.072-42.667-42.667-42.667s-42.667 19.072-42.667 42.667v0 341.333c0 23.595 19.072 42.667 42.667 42.667zM597.333 618.667c23.595 0 42.667-19.072 42.667-42.667v0-341.333c0-23.595-19.072-42.667-42.667-42.667s-42.667 19.072-42.667 42.667v0 341.333c0 23.595 19.072 42.667 42.667 42.667z" />
<glyph unicode="&#xe946;" glyph-name="uniE946" d="M768 661.333c23.595 0 42.667-19.072 42.667-42.667v0-488.619c0-59.947-48.811-108.715-108.757-108.715v0h-379.861c-59.947 0-108.715 48.768-108.715 108.715v0 488.619c0 23.595 19.072 42.667 42.667 42.667s42.667-19.072 42.667-42.667v0-488.619c0-12.885 10.496-23.381 23.381-23.381v0h379.861c12.928 0 23.424 10.496 23.424 23.381v0 488.619c0 23.595 19.072 42.667 42.667 42.667zM512 874.667c23.595 0 42.667-19.072 42.667-42.667v0-42.667h256c23.595 0 42.667-19.072 42.667-42.667s-19.072-42.667-42.667-42.667v0h-597.333c-23.595 0-42.667 19.072-42.667 42.667s19.072 42.667 42.667 42.667v0h256v42.667c0 23.595 19.072 42.667 42.667 42.667z" />
<glyph unicode="&#xe947;" glyph-name="uniE947" d="M668.776 514.155c20.671-7.175 32.306-28.65 27.676-49.504l-1.361-4.795-131.712-379.435c-7.727-22.261-32.038-34.043-54.299-26.316-3.722 1.292-7.151 3.047-10.245 5.179-3.151-2.168-6.742-3.923-10.638-5.171-20.837-6.677-43.037 3.506-51.86 22.961l-1.792 4.651-121.472 379.093c-7.19 22.44 5.172 46.461 27.612 53.651 20.837 6.677 43.037-3.506 51.86-22.961l1.792-4.651 105.459-329.21 114.679 330.191c7.727 22.261 32.038 34.043 54.299 26.316zM455.334 850.47l50.821-37.547 51.51 37.139 159.519-221.16 213.682-1.413-0.562-85.331-854.699 5.632 0.562 85.331 217.55-1.446 161.617 218.795zM506.112 775.632l-106.837-144.64 212.181-1.408-105.344 146.048z" />
<glyph unicode="&#xe948;" glyph-name="uniE948" d="M765.15 874.654h-513.408c-26.552 0-51.281-13.439-65.75-35.749l-129.975-200.637c-19.534-30.134-17.47-69.49 5.059-97.453l380.884-472.83c29.172-36.185 84.167-36.582 113.892-0.872l389.358 468.638c22.401 26.863 25.51 65 7.772 95.207l-120.045 204.852c-14.086 24.068-39.88 38.844-67.788 38.844zM761.259 789.333l117.333-200.192-379.179-456.448-370.944 460.501 127.019 196.139h505.771z" />
<glyph unicode="&#xe949;" glyph-name="uniE949" d="M640.427 837.547l195.519 0.080c12.637 1.616 25.861-2.422 35.578-12.117 5.677-5.664 9.425-12.529 11.244-19.779l1.076-6.183 0.21-4.668v-201.387c0-23.564-19.103-42.667-42.667-42.667-21.881 0-39.915 16.471-42.38 37.691l-0.287 4.976-0.043 98.645-119.087-119.395c-15.364-15.398-39.564-16.608-56.316-3.612l-4.023 3.545c-15.398 15.364-16.608 39.564-3.612 56.316l3.545 4.023 118.95 119.24-97.707-0.043c-21.881 0-39.915 16.471-42.38 37.691l-0.287 4.976c0 21.881 16.471 39.915 37.691 42.38l4.976 0.287z" />
<glyph unicode="&#xe94a;" glyph-name="uniE94A" d="M182.613 837.547h200.96c23.564 0 42.667-19.103 42.667-42.667 0-21.881-16.471-39.915-37.691-42.38l-4.976-0.287-97.963 0.043 256.559-256.593c6.668-6.668 10.901-15.316 12.127-24.562l0.37-5.608v-364.8c0-23.564-19.103-42.667-42.667-42.667-21.881 0-39.915 16.471-42.38 37.691l-0.287 4.976v347.127l-244.096 244.062 0.043-98.389c0-21.881-16.471-39.915-37.691-42.38l-4.976-0.287c-21.881 0-39.915 16.471-42.38 37.691l-0.287 4.976 0.075 203.916 0.217 2.482 0.879 4.952 1.385 4.614 1.441 3.48 2.232 4.159 2.85 4.098 3.418 3.855 4.77 4.12 4.746 3.058 4.81 2.28 4.495 1.51 5.014 1.059 3.807 0.396 2.528 0.074z" />
<glyph unicode="&#xe94b;" glyph-name="uniE94B" d="M750.306 831.996c17.126 0 32.41-10.211 39.117-25.624l1.748-4.775 32.125-107.027 42.948-0.004c26.582 0 46.261-23.871 42.147-49.357l-1.054-4.792-54.571-195.285c-4.683-16.76-18.993-28.819-35.937-30.873l-5.155-0.311h-277.55c-17.402 0-32.867 10.536-39.406 26.302l-1.687 4.882-54.571 195.285c-7.154 25.602 10.54 50.978 36.193 53.875l4.899 0.274 42.94 0.004 32.151 107.027c4.924 16.403 19.099 28.105 35.789 30.097l5.076 0.301h154.798zM809.984 609.237h-274.222l30.72-109.952h212.782l30.72 109.952zM718.549 746.667h-91.31l-15.659-52.096h122.627l-15.659 52.096z" />
<glyph unicode="&#xe94c;" glyph-name="uniE94C" d="M725.773 160.316c23.564 0 42.667-19.103 42.667-42.667 0-21.881-16.471-39.915-37.691-42.38l-4.976-0.287h-457.259c-23.564 0-42.667 19.103-42.667 42.667 0 21.881 16.471 39.915 37.691 42.38l4.976 0.287h457.259zM428.588 831.979c23.564 0 42.667-19.103 42.667-42.667 0-21.881-16.471-39.915-37.691-42.38l-4.976-0.287-257.921 0.021v-440.789h652.928l0.017 27.925c0 21.881 16.471 39.915 37.691 42.38l4.976 0.287c21.881 0 39.915-16.471 42.38-37.691l0.287-4.976v-70.613c0-21.881-16.471-39.915-37.691-42.38l-4.976-0.287h-738.261c-21.881 0-39.915 16.471-42.38 37.691l-0.287 4.976v526.123c0 21.881 16.471 39.915 37.691 42.38l4.976 0.287h300.571z" />
<glyph unicode="&#xe94d;" glyph-name="uniE94D" d="M743.345 862.201l-90.818-90.633c-16.639-16.605-16.713-43.54-0.165-60.236l108.786-109.758c16.715-16.864 43.982-16.838 60.664 0.058l88.927 90.062c16.298 16.506 16.423 43.008 0.282 59.667l-106.896 110.328c-16.569 17.101-43.928 17.331-60.782 0.511zM772.949 771.243l47.744-49.28-29.312-29.696-48.512 48.939 30.080 30.037z" />
<glyph unicode="&#xe94e;" glyph-name="uniE94E" d="M567.337 672.801l-426.688-422.406c-8.095-8.014-12.649-18.931-12.649-30.322v-111.917c0-23.564 19.103-42.667 42.667-42.667h95.49c11.090 0 21.744 4.318 29.705 12.039l435.792 422.656c16.708 16.204 17.346 42.809 1.435 59.796l-104.594 111.667c-16.425 17.535-44.083 18.057-61.157 1.154zM596.181 581.333l45.952-49.067-393.301-381.44h-35.499v51.499l382.848 379.008z" />
<glyph unicode="&#xe94f;" glyph-name="uniE94F" d="M222.57 642.411c12.173 18.182 35.893 24.004 54.897 14.247l4.294-2.53 231.092-154.714 229.314 154.238c18.154 12.215 42.312 8.616 56.202-7.614l3.016-3.968c12.215-18.154 8.616-42.312-7.614-56.202l-3.968-3.016-253.042-170.251c-12.774-8.595-29.041-9.567-42.606-2.909l-4.948 2.854-254.919 170.674c-19.581 13.11-24.827 39.611-11.717 59.191z" />
<glyph unicode="&#xe950;" glyph-name="uniE950" d="M853.333 789.333h-682.667c-70.692 0-128-57.308-128-128v-426.667c0-70.692 57.308-128 128-128h682.667c70.692 0 128 57.308 128 128v426.667c0 70.692-57.308 128-128 128zM170.667 704h682.667c23.564 0 42.667-19.103 42.667-42.667v-426.667c0-23.564-19.103-42.667-42.667-42.667h-682.667c-23.564 0-42.667 19.103-42.667 42.667v426.667c0 23.564 19.103 42.667 42.667 42.667z" />
<glyph unicode="&#xe951;" glyph-name="uniE951" d="M938.667 257.939c21.881 0 39.915-16.471 42.38-37.691l0.287-4.976v-116.364c0-63.965-49.905-116.239-112.916-120.023l-7.327-0.219h-116.364c-23.564 0-42.667 19.103-42.667 42.667 0 21.881 16.471 39.915 37.691 42.38l4.976 0.287h116.364c17.812 0 32.485 13.303 34.637 30.527l0.272 4.382v116.364c0 23.564 19.103 42.667 42.667 42.667zM85.333 257.939c21.881 0 39.915-16.471 42.38-37.691l0.287-4.976v-116.364c0-17.812 13.303-32.485 30.527-34.637l4.382-0.272h116.364c23.564 0 42.667-19.103 42.667-42.667 0-21.881-16.471-39.915-37.691-42.38l-4.976-0.287h-116.364c-63.965 0-116.239 49.905-120.023 112.916l-0.219 7.327v116.364c0 23.564 19.103 42.667 42.667 42.667zM279.273 917.333c23.564 0 42.667-19.103 42.667-42.667 0-21.881-16.471-39.915-37.691-42.38l-4.976-0.287h-116.364c-17.812 0-32.485-13.303-34.637-30.527l-0.272-4.382v-116.364c0-23.564-19.103-42.667-42.667-42.667-21.881 0-39.915 16.471-42.38 37.691l-0.287 4.976v116.364c0 63.965 49.905 116.239 112.916 120.023l7.327 0.219h116.364zM861.091 917.333c63.965 0 116.239-49.905 120.023-112.916l0.219-7.327v-116.364c0-23.564-19.103-42.667-42.667-42.667-21.881 0-39.915 16.471-42.38 37.691l-0.287 4.976v116.364c0 17.812-13.303 32.485-30.527 34.637l-4.382 0.272h-116.364c-23.564 0-42.667 19.103-42.667 42.667 0 21.881 16.471 39.915 37.691 42.38l4.976 0.287h116.364z" />
<glyph unicode="&#xe952;" glyph-name="uniE952" d="M660.474 279.144c13.853-19.062 9.631-45.745-9.431-59.598-40.163-29.188-86.767-46.94-139.042-46.94s-98.879 17.752-139.042 46.94c-19.062 13.853-23.285 40.536-9.431 59.598s40.536 23.285 59.598 9.431c26.567-19.307 56.309-30.636 88.875-30.636s62.309 11.329 88.875 30.636c19.062 13.853 45.745 9.631 59.598-9.431zM512 607.030c21.881 0 39.915-16.471 42.38-37.691l0.287-4.976v-155.152c0-44.975-36.479-81.455-81.455-81.455-23.564 0-42.667 19.103-42.667 42.667 0 21.881 16.471 39.915 37.691 42.38l1.097 0.081v151.478c0 21.881 16.471 39.915 37.691 42.38l4.976 0.287zM705.939 607.030c21.881 0 39.915-16.471 42.38-37.691l0.287-4.976v-77.576c0-23.564-19.103-42.667-42.667-42.667-21.881 0-39.915 16.471-42.38 37.691l-0.287 4.976v77.576c0 23.564 19.103 42.667 42.667 42.667zM318.061 607.030c21.881 0 39.915-16.471 42.38-37.691l0.287-4.976v-77.576c0-23.564-19.103-42.667-42.667-42.667-21.881 0-39.915 16.471-42.38 37.691l-0.287 4.976v77.576c0 23.564 19.103 42.667 42.667 42.667z" />
<glyph unicode="&#xe953;" glyph-name="uniE953" d="M317.093 716.979c27.96 0 54.665-9.038 76.614-25.455 18.87-14.114 22.726-40.852 8.612-59.722-13.028-17.418-36.813-22.044-55.237-11.552l-4.485 2.939c-7.319 5.474-16.13 8.456-25.505 8.456-22.354 0-38.618-17.216-38.618-41.994 0-13.999 6.774-26.776 17.81-34.691l4.333-2.733c20.641-11.368 28.158-37.316 16.791-57.957s-37.316-28.158-57.957-16.791c-40.548 22.331-66.311 65.006-66.311 112.172 0 70.856 53.351 127.328 123.952 127.328z" />
<glyph unicode="&#xe954;" glyph-name="uniE954" d="M316.117 851.328c58.189 0 106.854-25.784 158.425-74.546l9.707-9.411 26.812-25.226 13.547 13.47c55.721 55.313 111.726 90.379 169.516 94.104l10.217 0.33c66.84 0 131.274-25.674 179.201-73.251 98.161-98.418 98.161-258.067 1.572-355.899l-193.166-215.652c-15.722-17.552-42.696-19.036-60.249-3.314s-19.036 42.696-3.314 60.249l194.575 217.15c65.16 66.046 65.16 172.039 0.314 237.055-31.531 31.3-74.269 48.329-118.933 48.329-30.829 0-69.983-22.51-111.229-61.529l-8.275-8.022-42.667-42.667c-15.052-15.052-38.628-16.55-55.375-4.261l-4.035 3.359-57.809 54.423c-41.6 41.296-74.378 59.977-108.833 59.977-45.66 0-89.161-18.263-121.838-52.077-60.485-62.651-59.722-162.911 1.35-230.308l6.774-7.092 309.383-344.421 24.062 26.776c15.722 17.552 42.696 19.036 60.249 3.314s19.036-42.696 3.314-60.249l-31.691-35.357c-14.728-15.577-34.937-24.030-56.003-23.923-18.073 0.124-35.591 6.572-50.806 19.547l-5.594 5.172-314.7 350.336c-98.677 97.903-103.283 256.498-7.714 355.49 48.851 50.552 114.533 78.127 183.215 78.127z" />
<glyph unicode="&#xe955;" glyph-name="uniE955" d="M440.32 295.253c21.881 0 39.915-16.471 42.38-37.691l0.287-4.976v-136.96c0-23.564-19.103-42.667-42.667-42.667-21.881 0-39.915 16.471-42.38 37.691l-0.287 4.976v136.96c0 23.564 19.103 42.667 42.667 42.667zM585.387 516.693c21.881 0 39.915-16.471 42.38-37.691l0.287-4.976v-137.387c0-23.564-19.103-42.667-42.667-42.667-21.881 0-39.915 16.471-42.38 37.691l-0.287 4.976v137.387c0 23.564 19.103 42.667 42.667 42.667zM730.88 755.627c21.881 0 39.915-16.471 42.38-37.691l0.287-4.976v-136.96c0-23.564-19.103-42.667-42.667-42.667-21.881 0-39.915 16.471-42.38 37.691l-0.287 4.976v136.96c0 23.564 19.103 42.667 42.667 42.667z" />
<glyph unicode="&#xe956;" glyph-name="uniE956" d="M185.6 226.56c0 0 31.004 0 93.013 0 23.564 0 42.667-19.103 42.667-42.667 0-21.881-16.471-39.915-37.691-42.38l-4.976-0.287h-93.013c-23.564 0-42.667 19.103-42.667 42.667 0 21.881 16.471 39.915 37.691 42.38l4.976 0.287h93.013c-62.009 0-93.013 0-93.013 0zM482.987 226.56h355.413c23.564 0 42.667-19.103 42.667-42.667 0-21.881-16.471-39.915-37.691-42.38l-4.976-0.287c-236.942 0-355.413 0-355.413 0 0 0.191 0 28.636 0 85.333v0zM185.6 448h238.507c23.564 0 42.667-19.103 42.667-42.667 0-21.881-16.471-39.915-37.691-42.38l-4.976-0.287h-238.507c-23.564 0-42.667 19.103-42.667 42.667 0 21.881 16.471 39.915 37.691 42.38l4.976 0.287zM628.053 448h210.347c23.564 0 42.667-19.103 42.667-42.667 0-21.881-16.471-39.915-37.691-42.38l-4.976-0.287c-140.231 0-210.347 0-210.347 0 0.142 0.191 0.142 28.636 0 85.333v0zM773.547 686.933h64.853c23.564 0 42.667-19.103 42.667-42.667 0-14.991-7.731-28.176-19.424-35.786-5.374-3.498-11.585-5.817-18.267-6.593l-4.976-0.287c-43.236 0-64.853 0-64.853 0s0 28.444 0 85.333v0zM185.6 686.933h383.573c23.564 0 42.667-19.103 42.667-42.667 0-21.881-16.471-39.915-37.691-42.38l-4.976-0.287h-383.573c-23.564 0-42.667 19.103-42.667 42.667 0 21.881 16.471 39.915 37.691 42.38l4.976 0.287z" />
<glyph unicode="&#xe957;" glyph-name="uniE957" d="M555.799 377.063c33.268-157.657 108.060-228.528 231.111-225.654 23.558 0.55 43.101-18.101 43.651-41.659s-18.101-43.101-41.659-43.651c-167.644-3.916-275.422 98.213-316.598 293.346-4.865 23.056 9.882 45.691 32.938 50.557s45.691-9.882 50.557-32.938zM527.531 874.667c190.198 0 332.811-93.031 422.261-274.281 10.429-21.131 1.753-46.715-19.378-57.143s-46.715-1.753-57.143 19.378c-75.383 152.746-188.771 226.713-345.739 226.713-157.545 0-292.107-88.168-406.058-269.748-12.526-19.959-38.86-25.986-58.819-13.46s-25.986 38.86-13.46 58.819c128.48 204.733 288.716 309.723 478.338 309.723z" />
<glyph unicode="&#xe958;" glyph-name="uniE958" d="M494.885 730.531c170.188 24.089 338.393-112.711 392.654-302.871 27.836-97.553-10.548-173.056-88.347-185.87-69.411-11.433-140.557 34.572-158.404 109.777-23.784 100.222-58.516 136.417-126.226 136.417-72.19 0-126.721-90.338-97.962-210.605 22.25-93.046 77.507-166.806 167.729-222.901 20.012-12.442 26.148-38.751 13.706-58.763s-38.751-26.148-58.763-13.706c-108.847 67.675-178.055 160.056-205.666 275.524-40.524 169.469 47.795 315.784 180.955 315.784 112.877 0 177.217-67.051 209.253-202.047 7.382-31.107 35.84-49.509 61.508-45.281 23.421 3.858 34.928 26.493 20.158 78.256-43.479 152.373-174.955 259.301-298.637 241.795-135.469-19.174-233.9-126.539-257.249-290.632-3.319-23.329-24.922-39.55-48.252-36.231s-39.55 24.922-36.231 48.252c28.499 200.289 155.099 338.379 329.772 363.103z" />
<glyph unicode="&#xe959;" glyph-name="uniE959" d="M511.169 341.567c10.065-0.592 19.961-4.733 27.651-12.423 0.123-0.123 0.245-0.246 0.365-0.37l226.945-226.962c16.662-16.662 16.662-43.677 0-60.34s-43.677-16.662-60.34 0v0l-197.15 197.15-197.15-197.146c-15.381-15.381-39.583-16.564-56.32-3.549l-4.020 3.549c-16.662 16.662-16.662 43.677 0 60.34v0l227.311 227.324c7.69 7.69 17.586 11.831 27.651 12.423zM851.232 701.895c16.664 16.661 43.679 16.658 60.34-0.006s16.658-43.679-0.006-60.34v0l-197.143-197.104 197.163-197.171c15.381-15.381 16.564-39.583 3.549-56.32l-3.549-4.020c-16.662-16.662-43.677-16.662-60.34 0v0l-227.328 227.328c-1.282 1.282-2.465 2.625-3.549 4.020l-2.977 4.338c-9.759 16.381-7.588 37.892 6.512 51.989v0zM105.691 701.885c16.661 16.664 43.676 16.666 60.34 0.006v0l227.348-227.297c16.662-16.662 16.662-43.677 0-60.34v0l-227.328-227.328c-16.662-16.662-43.677-16.662-60.34 0s-16.662 43.677 0 60.34v0l197.107 197.137-197.122 197.142c-15.382 15.379-16.567 39.581-3.555 56.32zM251.166 847.352c16.662 16.662 43.677 16.662 60.34 0v0l197.137-197.125 197.167 197.12c15.381 15.381 39.583 16.564 56.32 3.549l4.020-3.549c16.662-16.662 16.662-43.677 0-60.34v0l-227.328-227.328c-6.409-6.409-14.349-10.352-22.642-11.831l-4.996-0.587-5.050-0.004c-10.065 0.592-19.961 4.733-27.651 12.423v0l-227.315 227.332c-16.662 16.662-16.662 43.677 0 60.34z" />
<glyph unicode="&#xe95a;" glyph-name="uniE95A" d="M508.651 874.684c23.564 0 42.667-19.103 42.667-42.667v0l-0.026-337.963 338.005-0.038c21.881 0 39.915-16.471 42.38-37.691l0.287-4.976c0-23.564-19.103-42.667-42.667-42.667v0l-338.005 0.038 0.026-338.005c0-21.881-16.471-39.915-37.691-42.38l-4.976-0.287c-23.564 0-42.667 19.103-42.667 42.667v0l-0.026 338.005-337.963-0.038c-21.881 0-39.915 16.471-42.38 37.691l-0.287 4.976c0 23.564 19.103 42.667 42.667 42.667v0l337.963 0.038 0.026 337.963c0 21.881 16.471 39.915 37.691 42.38z" />
<glyph unicode="&#xe95b;" glyph-name="uniE95B" d="M330.935 473.156c23.552 0 42.667-19.072 42.667-42.667l-0.034-29.909 30.037-0.038c23.552 0 42.667-19.072 42.667-42.667s-19.115-42.667-42.667-42.667l-30.037 0.038 0.034-30.037c0-23.595-19.115-42.667-42.667-42.667s-42.667 19.072-42.667 42.667l-0.034 30.037-29.952-0.038c-23.552 0-42.667 19.072-42.667 42.667s19.115 42.667 42.667 42.667l29.952 0.038 0.034 29.909c0 23.595 19.115 42.667 42.667 42.667zM696.064 387.917c-10.24 0-20.053 4.309-27.307 11.563-7.253 7.211-11.093 17.067-11.093 26.837 0 10.283 3.84 20.053 11.093 27.307 14.507 14.549 40.107 14.549 54.187 0 7.253-7.253 11.52-17.024 11.52-27.307 0-9.771-4.267-20.011-11.52-26.837-6.827-7.253-17.067-11.563-26.88-11.563zM696.064 257.792c-10.24 0-20.053 3.84-27.307 11.136-7.253 7.253-11.093 17.024-11.093 27.264 0 5.163 0.853 9.813 2.987 14.507 1.707 4.736 4.693 8.96 8.107 12.373 14.080 14.507 40.107 14.507 54.187 0 7.253-6.827 11.52-16.597 11.52-26.88 0-10.24-4.267-20.011-11.52-27.264-6.827-7.296-17.067-11.136-26.88-11.136zM760.917 323.085c-9.813 0-19.627 3.84-26.88 11.093-3.413 3.413-6.4 7.68-8.533 12.373-1.707 4.693-2.987 9.813-2.987 14.933 0 4.693 1.28 9.813 2.987 14.507 2.133 4.693 4.693 8.96 8.533 12.373 3.413 3.84 7.68 6.4 12.373 8.533 14.080 5.547 31.147 2.133 41.813-8.533 3.413-3.413 6.4-7.68 8.533-12.373 1.707-4.693 2.56-9.813 2.56-14.507 0-5.12-0.853-10.24-2.987-14.933-1.707-4.693-4.693-8.96-8.107-12.373s-7.68-6.4-12.373-8.533c-4.693-1.707-9.813-2.56-14.933-2.56zM630.793 323.085c-10.24 0-20.053 3.84-27.307 11.093-3.413 3.413-6.4 7.68-8.107 12.373-2.133 4.693-2.987 9.813-2.987 14.933 0 9.813 3.84 19.627 11.093 26.88 3.413 3.84 7.68 6.4 12.373 8.533 14.080 5.547 31.573 2.133 42.24-8.533 3.413-3.413 5.973-7.68 8.107-12.373s2.987-9.813 2.987-14.507c0-5.12-0.853-10.24-2.987-14.933s-4.693-8.96-8.107-12.373c-3.84-3.413-8.107-6.4-12.8-8.533-4.693-1.707-9.387-2.56-14.507-2.56z" />
<glyph unicode="&#xe95c;" glyph-name="uniE95C" d="M737.792 118.916h-467.541c-101.973 0-184.917 82.901-184.917 184.875v116.224c0 101.931 82.944 184.917 184.917 184.917h191.104v141.739c0 23.595 19.072 42.667 42.667 42.667 23.552 0 42.667-19.072 42.667-42.667v-182.741c0-23.595-19.115-44.331-42.667-44.331h-233.771c-54.912 0-99.584-44.672-99.584-99.584v-116.224c0-54.869 44.672-99.541 99.584-99.541h467.541c54.912 0 99.541 44.672 99.541 99.541v116.224c0 54.912-44.629 99.584-99.541 99.584h-90.624c-23.552 0-42.667 19.072-42.667 42.667 0 23.552 19.115 42.667 42.667 42.667h90.624c101.931 0 184.875-82.987 184.875-184.917v-116.224c0-101.973-82.944-184.875-184.875-184.875z" />
<glyph unicode="&#xe95d;" glyph-name="uniE95D" d="M472.486 549.429c-13.032-31.995-30.619-53.763-53.034-66.882l-6.87-3.678c-69.13-33.715-113.915-100.243-113.915-174.757 0-110.026 96.392-197.445 213.333-197.445s213.333 87.419 213.333 197.445c0 63.342-32.37 121.227-85.279 157.974l-8.523 5.624c-24.154 15.131-52.815 45.242-84.712 90.282-19.47 27.492-61.626 22.636-74.334-8.563zM517.333 457.173l6.244-7.124c18.233-20.184 36.12-36.45 53.818-48.804l8.834-5.851c33.767-21.153 53.77-54.967 53.77-91.283 0-60.937-56.428-112.112-128-112.112s-128 51.175-128 112.112c0 38.159 22.174 73.484 58.529 94.129l7.458 3.93c22.837 11.138 42.747 26.47 59.684 45.736l7.663 9.267z" />
<glyph unicode="&#xe95e;" glyph-name="uniE95E" d="M472.486 848.095c-30.539-74.974-73.748-127.004-129.933-157.84l-10.687-5.534c-124.074-60.511-203.865-179.042-203.865-311.165 0-195.508 172.802-352.223 384-352.223s384 156.715 384 352.223c0 114.097-59.477 218.573-156.995 284.162l-10.593 6.877c-53.872 33.748-114.827 97.785-181.593 192.063-19.47 27.492-61.626 22.636-74.334-8.563zM519.381 750.677l5.622-7.192c51.117-64.203 100.039-112.241 147.244-144.133l10.863-7.073c79.618-49.875 127.556-130.911 127.556-218.723 0-146.419-132.838-266.89-298.667-266.89s-298.667 120.471-298.667 266.89c0 94.801 56.010 181.391 145.821 229.304l10.117 5.163c61.030 29.764 110.527 76.576 148.336 139.551l1.775 3.102z" />
<glyph unicode="&#xe95f;" glyph-name="uniE95F" d="M938.667 384.486c23.564 0 42.667-19.103 42.667-42.667v0-323.029c0-23.564-19.103-42.667-42.667-42.667v0h-321.109c-23.564 0-42.667 19.103-42.667 42.667v0 323.029c0 23.564 19.103 42.667 42.667 42.667v0zM896 299.179h-235.776v-237.696h235.776v237.696zM406.443 917.35c23.564 0 42.667-19.103 42.667-42.667v0-323.029c0-23.564-19.103-42.667-42.667-42.667v0h-321.109c-23.564 0-42.667 19.103-42.667 42.667v0 323.029c0 23.564 19.103 42.667 42.667 42.667v0zM363.776 832.043h-235.776v-237.696h235.776v237.696z" />
<glyph unicode="&#xe960;" glyph-name="uniE960" d="M207.689 360.814c15.69 31.569 60.725 31.569 76.415 0v0l160.555-323.029c14.097-28.363-6.534-61.657-38.208-61.657v0h-321.109c-31.673 0-52.305 33.294-38.208 61.657v0zM245.888 245.973l-91.733-184.491h183.424l-91.691 184.491zM778.116 917.342c112.225 0 203.221-90.996 203.221-203.221v0l-0.207-11.158c-4.67-104.126-87.906-188.412-193.675-193.761v0l-9.34-0.223c-112.26 0-203.264 90.988-203.264 203.221v0l0.198 10.972c4.737 108.034 93.84 194.169 203.066 194.169zM778.116 832.009c-65.135 0-117.931-52.786-117.931-117.888v0l0.215-9.101c3.711-61.759 54.953-110.708 116.637-110.721v0l7.179 0.168c62.462 3.167 111.787 54.902 111.787 117.734v0l-0.215 9.1c-3.712 61.755-54.987 110.708-117.673 110.708z" />
<glyph unicode="&#xe961;" glyph-name="uniE961" d="M781.419 788.966h58.197v-525.227c0-23.564 19.103-42.667 42.667-42.667s42.667 19.103 42.667 42.667v567.893c0 23.564-19.103 42.667-42.667 42.667h-143.531c-23.564 0-42.667-19.103-42.667-42.667v-567.893c0-23.564 19.103-42.667 42.667-42.667s42.667 19.103 42.667 42.667v525.227z" />
<glyph unicode="&#xe962;" glyph-name="uniE962" d="M172.378 149.321h711.637c23.564 0 42.667-19.103 42.667-42.667 0-21.881-16.471-39.915-37.691-42.38l-4.976-0.287h-711.637c-23.564 0-42.667 19.103-42.667 42.667 0 21.881 16.471 39.915 37.691 42.38l4.976 0.287zM170.667 746.3h143.488c21.881 0 39.915-16.471 42.38-37.691l0.287-4.976v-439.893c0-23.564-19.103-42.667-42.667-42.667-21.881 0-39.915 16.471-42.38 37.691l-0.287 4.976v397.227h-58.155v-397.227c0-23.564-19.103-42.667-42.667-42.667-21.881 0-39.915 16.471-42.38 37.691l-0.287 4.976v439.893c0 21.881 16.471 39.915 37.691 42.38l4.976 0.287zM454.711 575.633h143.488c21.881 0 39.915-16.471 42.38-37.691l0.287-4.976v-269.227c0-23.564-19.103-42.667-42.667-42.667-21.881 0-39.915 16.471-42.38 37.691l-0.287 4.976v226.56h-58.155v-226.56c0-23.564-19.103-42.667-42.667-42.667-21.881 0-39.915 16.471-42.38 37.691l-0.287 4.976v269.227c0 21.881 16.471 39.915 37.691 42.38l4.976 0.287z" />
<glyph unicode="&#xe963;" glyph-name="uniE963" d="M815.603 470.199c23.564 0 42.667-19.103 42.667-42.667 0-21.881-16.471-39.915-37.691-42.38l-4.976-0.287h-152.405c-23.564 0-42.667 19.103-42.667 42.667 0 21.881 16.471 39.915 37.691 42.38l4.976 0.287h152.405z" />
<glyph unicode="&#xe964;" glyph-name="uniE964" d="M314.313 431.782c102.881 0 186.283-83.401 186.283-186.283 0-102.916-83.393-186.325-186.283-186.325-102.894 0-186.325 83.414-186.325 186.325 0 22.986 4.184 45.459 12.257 66.516 8.435 22.003 33.11 33.001 55.113 24.566s33.001-33.11 24.566-55.113c-4.345-11.334-6.602-23.455-6.602-35.969 0-55.779 45.222-100.992 100.992-100.992 55.758 0 100.949 45.201 100.949 100.992 0 55.753-45.196 100.949-100.949 100.949-23.564 0-42.667 19.103-42.667 42.667s19.103 42.667 42.667 42.667zM744.606 874.654c21.881 0 39.915-16.471 42.38-37.691l0.287-4.976-0.030-201.758 0.435-0.255c39.964-20.028 67.564-60.104 70.359-106.415l0.234-7.774v-413.952c0-21.881-16.471-39.915-37.691-42.38l-4.976-0.287h-265.472c-23.564 0-42.667 19.103-42.667 42.667 0 21.881 16.471 39.915 37.691 42.38l4.976 0.287 222.775 0.013 0.030 371.273c0 19.018-12.668 35.385-30.514 40.665l-4.99 1.159c-18.792 3.205-32.956 18.401-35.187 36.93l-0.307 5.129-0.030 189.666h-77.525l0.030-189.666c0-19.063-12.598-35.581-30.489-40.894l-5.005-1.165c-18.726-3.194-32.954-18.242-35.195-36.709l-0.308-5.115v-72.832c0-23.564-19.103-42.667-42.667-42.667-21.881 0-39.915 16.471-42.38 37.691l-0.287 4.976v72.832c0 46.654 25.165 87.913 63.294 110.23l7.673 4.172 0.030 201.801c0 21.881 16.471 39.915 37.691 42.38l4.976 0.287h162.859z" />
<glyph unicode="&#xe965;" glyph-name="uniE965" d="M381.024 604.198c13.77 34.991 61.916 35.849 77.823 3.602l2.046-4.832 47.523-132.653 2.603 5.522c6.238 13.336 18.836 22.391 33.191 24.239l5.457 0.349h238.933c23.564 0 42.667-19.103 42.667-42.667 0-21.881-16.471-39.915-37.691-42.38l-4.976-0.287-211.789 0.013-34.961-74.753c-15.37-32.858-61.294-32.31-76.733-1.209l-2.080 4.894-44.178 123.292-14.407-36.629c-5.779-14.684-19.113-24.841-34.504-26.726l-5.199-0.317h-153.941c-23.564 0-42.667 19.103-42.667 42.667 0 21.881 16.471 39.915 37.691 42.38l4.976 0.287 124.851 0.013 45.366 115.195z" />
<glyph unicode="&#xe966;" glyph-name="uniE966" d="M666.202 831.983c63.92 0 124.222-24.961 169.349-70.139 90.825-90.825 93.348-236.926 7.566-330.825l-7.569-7.918-204.032-203.989c-16.664-16.661-43.679-16.658-60.34 0.006-15.379 15.382-16.56 39.584-3.543 56.321l3.55 4.019 204.029 203.986c60.095 60.095 60.095 157.965-0.017 218.078-29.127 29.16-67.704 45.129-108.991 45.129-38.112 0-73.914-13.606-102.119-38.648l-6.89-6.498-31.531-31.531c-15.381-15.381-39.583-16.564-56.32-3.549l-4.020 3.549-31.531 31.531c-29.189 29.189-67.738 45.146-109.051 45.146-41.281 0-79.87-15.965-109.009-45.103-57.949-57.949-60.018-151.023-6.209-211.48l6.209-6.58 309.931-309.931c16.662-16.662 16.662-43.677 0-60.34-15.381-15.381-39.583-16.564-56.32-3.549l-4.020 3.549-309.931 309.931c-93.42 93.42-93.42 245.32 0 338.74 45.151 45.151 105.449 70.097 169.349 70.097 59.941 0 116.648-21.922 160.743-61.903l10.005-9.589 1.348 1.336c42.323 42.371 97.967 66.958 157.426 69.865l11.94 0.291z" />
<glyph unicode="&#xe967;" glyph-name="uniE967" d="M499.776 542.771c97.45 0 176.469-79.037 176.469-176.469 0-97.467-79.010-176.512-176.469-176.512-97.455 0-176.427 79.041-176.427 176.512 0 97.437 78.98 176.469 176.427 176.469zM499.776 457.438c-50.305 0-91.093-40.815-91.093-91.136 0-50.359 40.784-91.179 91.093-91.179 50.322 0 91.136 40.832 91.136 91.179 0 50.309-40.818 91.136-91.136 91.136z" />
<glyph unicode="&#xe968;" glyph-name="uniE968" d="M914.202 121.178v381.781c0 44.085-21.593 85.403-57.789 110.616l-279.768 194.336c-46.272 32.097-107.539 32.097-153.707-0.015l-279.741-194.287c-36.267-25.218-57.88-66.543-57.88-110.649v-381.781c0-23.564 19.103-42.667 42.667-42.667s42.667 19.103 42.667 42.667v381.781c0 16.158 7.928 31.316 21.244 40.575l279.746 194.29c16.917 11.766 39.362 11.766 56.346-0.014l279.7-194.288c13.254-9.232 21.184-24.406 21.184-40.563v-381.781c0-23.564 19.103-42.667 42.667-42.667s42.667 19.103 42.667 42.667z" />
<glyph unicode="&#xe969;" glyph-name="uniE969" d="M682.667 468.894c23.552 0 42.667-19.072 42.667-42.667s-19.115-42.667-42.667-42.667v0h-85.333c-23.552 0-42.667 19.072-42.667 42.667s19.115 42.667 42.667 42.667v0zM426.667 468.894c23.552 0 42.667-19.072 42.667-42.667s-19.115-42.667-42.667-42.667v0h-85.333c-23.552 0-42.667 19.072-42.667 42.667s19.115 42.667 42.667 42.667v0zM426.667 643.853c23.552 0 42.667-19.072 42.667-42.667s-19.115-42.667-42.667-42.667v0h-85.333c-23.552 0-42.667 19.072-42.667 42.667s19.115 42.667 42.667 42.667v0zM682.667 643.853c23.552 0 42.667-19.072 42.667-42.667s-19.115-42.667-42.667-42.667v0h-85.333c-23.552 0-42.667 19.072-42.667 42.667s19.115 42.667 42.667 42.667v0z" />
<glyph unicode="&#xe96a;" glyph-name="uniE96A" d="M567.040 269.939c19.285 0 34.901-15.616 34.901-34.901v0-160.768h379.392c23.552 0 42.667-19.072 42.667-42.667s-19.115-42.667-42.667-42.667v0h-938.667c-23.552 0-42.667 19.072-42.667 42.667s19.115 42.667 42.667 42.667v0h379.392v160.768c0 19.285 15.616 34.901 34.901 34.901v0zM457.173 896.747c35.285 13.227 74.283 13.227 109.653 0v0l248.277-93.141c48.384-18.176 80.896-65.024 80.896-116.693v0-510.976c0-23.595-19.115-42.667-42.667-42.667s-42.667 19.072-42.667 42.667v0 510.976c0 16.256-10.24 31.061-25.515 36.779v0l-248.277 93.141c-16.043 5.973-33.749 5.973-49.749 0v0l-248.277-93.141c-15.275-5.717-25.515-20.523-25.515-36.779v0-510.976c0-23.595-19.115-42.667-42.667-42.667s-42.667 19.072-42.667 42.667v0 510.976c0 51.669 32.512 98.517 80.896 116.693v0z" />
<glyph unicode="&#xe96b;" glyph-name="uniE96B" d="M693.306 628.738c15.397-15.364 16.606-39.565 3.609-56.316l-3.545-4.023-301.355-301.995c-16.645-16.68-43.66-16.709-60.34-0.064-15.397 15.364-16.606 39.565-3.609 56.316l3.545 4.023 301.355 301.995c16.645 16.68 43.66 16.709 60.34 0.064zM621.376 420.77c44.16 0 80-35.76 80-80 0-44.16-35.84-80-80-80-44.24 0-80 35.84-80 80 0 44.24 35.76 80 80 80zM400 640c44.16 0 80-35.84 80-80 0-44.24-35.84-80-80-80s-80 35.76-80 80c0 44.16 35.84 80 80 80z" />
<glyph unicode="&#xe96c;" glyph-name="uniE96C" d="M711.147 874.65c6.031 0 11.716-0.333 16.834-1.020 70.019-8.86 121.761-69.457 125.423-139.617l0.207-7.833 0.684-556.483c0.121-73.291-52.736-138.177-124.889-147.276-5.495-0.737-11.192-1.104-17.107-1.104-28.105 0-45.422 6.133-66.959 20.294l-11.518 7.905c-8.809 5.956-12.101 6.874-21.064 6.874-8.939 0-12.22-0.915-21.020-6.865l-11.517-7.904c-21.548-14.167-38.878-20.303-67.004-20.303-28.124 0-45.446 6.132-67 20.298l-7.362 5.022c-12.144 8.554-14.978 9.751-25.222 9.751-9.009 0-12.324-0.924-21.172-6.892l-4.163-2.879c-25.228-17.739-43.15-25.301-74.419-25.301-5.896 0-11.57 0.365-16.804 1.059-72.575 9.132-125.538 73.985-125.66 147.454l-0.496 404.613c-0.029 23.564 19.050 42.69 42.614 42.719s42.69-19.050 42.719-42.614l0.496-404.594c0.053-31.845 22.497-59.328 51.259-62.948 1.746-0.231 3.677-0.355 5.872-0.355 7.722 0 11.261 0.679 17.686 4.631l7.649 5.14c25.228 17.739 43.15 25.301 74.419 25.301 28.124 0 45.446-6.132 67-20.298l7.362-5.022c12.144-8.554 14.978-9.751 25.222-9.751 8.963 0 12.255 0.918 21.064 6.874l11.518 7.905c21.538 14.161 38.855 20.294 66.959 20.294 28.126 0 45.456-6.136 67.004-20.303l11.517-7.904c8.8-5.95 12.081-6.865 21.020-6.865 2.185 0 4.096 0.123 6.095 0.39 26.55 3.349 47.808 27.617 50.319 56.665l0.248 5.869-0.683 556.518c-0.027 31.812-22.454 59.266-51.326 62.921l-3.53 0.267-2.275 0.037c-7.709 0-11.243-0.677-17.658-4.62l-7.637-5.127c-25.229-17.726-43.157-25.282-74.417-25.282-28.114 0-45.43 6.123-66.981 20.27l-7.361 5.015c-10.629 7.477-14.131 9.33-21.711 9.676l-3.531 0.068c-7.67 0-11.181-0.672-17.571-4.608l-7.611-5.12c-25.202-17.738-43.119-25.301-74.36-25.301-28.116 0-45.441 6.127-66.985 20.274l-11.518 7.895c-8.803 5.945-12.090 6.86-21.038 6.86-2.449 0-4.319-0.11-6.061-0.343-26.605-3.378-47.86-27.623-50.391-56.719l-0.253-5.879c0.020-23.564-19.067-42.683-42.631-42.702s-42.683 19.067-42.702 42.631c-0.061 73.327 52.754 138.121 124.93 147.283 5.446 0.731 11.056 1.061 17.107 1.061 28.094 0 45.406-6.124 66.941-20.265l7.371-5.025c12.134-8.54 14.975-9.739 25.23-9.739 7.691 0 11.212 0.675 17.611 4.615l7.635 5.136c25.176 17.719 43.080 25.279 74.296 25.279 28.114 0 45.43-6.123 66.981-20.27l7.361-5.015c12.147-8.546 14.987-9.744 25.242-9.744 9.018 0 12.34 0.925 21.183 6.885l11.539 7.896c21.556 14.132 38.878 20.249 66.99 20.249z" />
<glyph unicode="&#xe96d;" glyph-name="uniE96D" d="M361.156 374.588h268.757c23.564 0 42.667-19.103 42.667-42.667 0-21.881-16.471-39.915-37.691-42.38l-4.976-0.287h-268.757c-23.564 0-42.667 19.103-42.667 42.667 0 21.881 16.471 39.915 37.691 42.38l4.976 0.287zM361.156 552.713h268.757c23.564 0 42.667-19.103 42.667-42.667 0-21.881-16.471-39.915-37.691-42.38l-4.976-0.287h-268.757c-23.564 0-42.667 19.103-42.667 42.667 0 21.881 16.471 39.915 37.691 42.38l4.976 0.287zM127.991 789.338h754.304c23.564 0 42.667-19.103 42.667-42.667 0-21.881-16.471-39.915-37.691-42.38l-4.976-0.287h-754.304c-23.564 0-42.667 19.103-42.667 42.667 0 21.881 16.471 39.915 37.691 42.38l4.976 0.287z" />
<glyph unicode="&#xe96e;" glyph-name="uniE96E" d="M199.031 33.216c-23.564 0-42.667 19.103-42.667 42.667v0 524.16c0 23.564 19.103 42.667 42.667 42.667s42.667-19.103 42.667-42.667v0-451.797l36.362 20.903c11.517 6.622 25.355 7.452 37.454 2.49l5.067-2.482 76.714-44.070 76.754 44.074c13.157 7.555 29.336 7.555 42.493 0v0l76.773-44.085 76.894 44.097c13.144 7.538 29.299 7.539 42.445 0.004v0l55.893-32.024 0.030 462.891c0 21.881 16.471 39.915 37.691 42.38l4.976 0.287c23.564 0 42.667-19.103 42.667-42.667v0-524.16c0-23.564-19.103-42.667-42.667-42.667-3.709 0-7.308 0.473-10.739 1.363-10.447-2.714-21.972-1.525-32.112 4.288v0l-76.953 44.111-76.912-44.107c-13.154-7.543-29.323-7.539-42.472 0.012v0l-76.759 44.077-76.759-44.077c-13.159-7.557-29.342-7.555-42.5 0.004v0l-76.7 44.062-76.619-44.054c-7.296-4.195-15.313-5.994-23.14-5.643z" />
<glyph unicode="&#xe96f;" glyph-name="uniE96F" d="M487.467 343.791c21.208 0 38.4-17.192 38.4-38.4s-17.192-38.4-38.4-38.4v0h-210.133c-21.208 0-38.4 17.192-38.4 38.4s17.192 38.4 38.4 38.4v0zM382.374 582.263c48.597 0 87.936-39.381 87.936-87.936s-39.339-87.936-87.936-87.936c-48.555 0-87.893 39.381-87.893 87.936s39.339 87.936 87.893 87.936z" />
<glyph unicode="&#xe970;" glyph-name="uniE970" d="M864.162 789.346c67.99 0 123.136-55.166 123.136-123.179v-474.795c0-68.333-55.423-123.776-123.776-123.776h-697.728c-67.99 0-123.136 55.166-123.136 123.179v475.392c0 68.013 55.146 123.179 123.136 123.179h698.368zM864.162 704.013h-698.368c-20.855 0-37.803-16.954-37.803-37.845v-475.392c0-20.891 16.948-37.845 37.803-37.845h697.728c21.218 0 38.443 17.231 38.443 38.443v474.795c0 20.891-16.948 37.845-37.803 37.845z" />
<glyph unicode="&#xe971;" glyph-name="uniE971" d="M524.919 510.767c23.564 0 42.667-19.103 42.667-42.667v0-220.459c0-23.564-19.103-42.667-42.667-42.667s-42.667 19.103-42.667 42.667v0 220.459c0 23.564 19.103 42.667 42.667 42.667zM525.158 664.755c32.122 0 58.155-26.082 58.155-58.197 0-32.097-26.057-58.155-58.155-58.155-32.115 0-58.197 26.032-58.197 58.155 0 32.14 26.057 58.197 58.197 58.197z" />
<glyph unicode="&#xe972;" glyph-name="uniE972" d="M525.133 874.701c242.907 0 439.808-196.93 439.808-439.851 0-242.913-196.895-439.808-439.808-439.808-242.885 0-439.808 196.909-439.808 439.808 0 242.906 196.93 439.851 439.808 439.851zM525.133 789.367c-195.748 0-354.475-158.738-354.475-354.517 0-195.77 158.717-354.475 354.475-354.475 195.785 0 354.475 158.689 354.475 354.475 0 195.795-158.699 354.517-354.475 354.517z" />
<glyph unicode="&#xe973;" glyph-name="uniE973" d="M580.807 382.352c23.542 1.012 43.448-17.253 44.459-40.795s-17.253-43.448-40.795-44.459v0l-86.94-3.737-3.677-86.854c-0.937-22.131-18.653-39.864-40.783-40.822v0l-87.114-3.771-3.861-87.201c-0.978-22.081-18.657-39.76-40.738-40.738v0l-126.251-5.589c-23.541-1.042-43.47 17.197-44.512 40.738s17.197 43.47 40.738 44.512v0l87.24 3.862 3.862 87.24c0.978 22.097 18.681 39.783 40.78 40.74v0l87.038 3.768 3.677 86.866c0.937 22.136 18.661 39.872 40.796 40.823v0zM722.632 661.516l4.527-3.368 4.133-3.877c16.716-17.614 17.866-45.343 1.773-64.717-17.341-20.462-47.901-22.964-68.087-5.963-20.764 17.244-23.499 48.098-6.058 68.678 16.042 18.989 43.502 22.544 63.713 9.247z" />
<glyph unicode="&#xe974;" glyph-name="uniE974" d="M584.417 853.090c133.123 57.468 287.632-3.829 345.142-136.932 57.528-133.094-3.782-287.655-136.935-345.164-21.633-9.343-46.744 0.619-56.087 22.252s0.619 46.744 22.252 56.087c89.882 38.82 131.265 143.146 92.438 232.974-38.824 89.855-143.124 131.232-232.977 92.444-89.855-38.824-131.232-143.124-92.438-232.989 1.846-4.277 2.938-8.69 3.334-13.090 3.415-13.976-0.349-29.337-11.266-40.253v0l-304.534-304.485v-90.374c0-21.881-16.471-39.915-37.691-42.38l-4.976-0.287c-23.564 0-42.667 19.103-42.667 42.667v0 107.947c0 13.014 5.826 24.667 15.013 32.493l2.195 2.439 293.788 293.783c-42.004 127.649 19.655 268.535 145.408 322.87z" />
<glyph unicode="&#xe975;" glyph-name="uniE975" d="M371.627 221.44h280.747c23.564 0 42.667 19.103 42.667 42.667s-19.103 42.667-42.667 42.667h-280.747c-23.564 0-42.667-19.103-42.667-42.667s19.103-42.667 42.667-42.667z" />
<glyph unicode="&#xe976;" glyph-name="uniE976" d="M149.76 306.773h58.027c23.564 0 42.667-19.103 42.667-42.667 0-21.881-16.471-39.915-37.691-42.38l-4.976-0.287h-58.027c-23.564 0-42.667 19.103-42.667 42.667 0 21.881 16.471 39.915 37.691 42.38l4.976 0.287zM816.213 306.773h58.027c23.564 0 42.667-19.103 42.667-42.667 0-21.881-16.471-39.915-37.691-42.38l-4.976-0.287h-58.027c-23.564 0-42.667 19.103-42.667 42.667 0 21.881 16.471 39.915 37.691 42.38l4.976 0.287zM149.76 490.667h58.027c23.564 0 42.667-19.103 42.667-42.667 0-21.881-16.471-39.915-37.691-42.38l-4.976-0.287h-58.027c-23.564 0-42.667 19.103-42.667 42.667 0 21.881 16.471 39.915 37.691 42.38l4.976 0.287zM371.627 490.667h58.453c23.564 0 42.667-19.103 42.667-42.667 0-21.881-16.471-39.915-37.691-42.38l-4.976-0.287h-58.453c-23.564 0-42.667 19.103-42.667 42.667 0 21.881 16.471 39.915 37.691 42.38l4.976 0.287zM593.92 490.667h58.453c23.564 0 42.667-19.103 42.667-42.667 0-21.881-16.471-39.915-37.691-42.38l-4.976-0.287h-58.453c-23.564 0-42.667 19.103-42.667 42.667 0 21.881 16.471 39.915 37.691 42.38l4.976 0.287zM816.213 490.667h58.027c23.564 0 42.667-19.103 42.667-42.667 0-21.881-16.471-39.915-37.691-42.38l-4.976-0.287h-58.027c-23.564 0-42.667 19.103-42.667 42.667 0 21.881 16.471 39.915 37.691 42.38l4.976 0.287zM149.76 674.56h58.027c23.564 0 42.667-19.103 42.667-42.667 0-21.881-16.471-39.915-37.691-42.38l-4.976-0.287h-58.027c-23.564 0-42.667 19.103-42.667 42.667 0 21.881 16.471 39.915 37.691 42.38l4.976 0.287zM371.627 674.56h58.453c23.564 0 42.667-19.103 42.667-42.667 0-21.881-16.471-39.915-37.691-42.38l-4.976-0.287h-58.453c-23.564 0-42.667 19.103-42.667 42.667 0 21.881 16.471 39.915 37.691 42.38l4.976 0.287zM593.92 674.56h58.453c23.564 0 42.667-19.103 42.667-42.667 0-21.881-16.471-39.915-37.691-42.38l-4.976-0.287h-58.453c-23.564 0-42.667 19.103-42.667 42.667 0 21.881 16.471 39.915 37.691 42.38l4.976 0.287zM816.213 674.56h58.027c23.564 0 42.667-19.103 42.667-42.667 0-21.881-16.471-39.915-37.691-42.38l-4.976-0.287h-58.027c-23.564 0-42.667 19.103-42.667 42.667 0 21.881 16.471 39.915 37.691 42.38l4.976 0.287z" />
<glyph unicode="&#xe977;" glyph-name="uniE977" d="M225.849 800.864c15.384 15.378 39.586 16.556 56.321 3.539l4.019-3.55 114.091-114.133c16.659-16.665 16.654-43.681-0.011-60.34-15.384-15.378-39.586-16.556-56.321-3.539l-4.019 3.55-114.091 114.133c-16.659 16.665-16.654 43.681 0.011 60.34zM617.283 686.719l114.091 114.133c16.659 16.665 43.674 16.671 60.34 0.011 15.384-15.378 16.571-39.579 3.56-56.32l-3.549-4.020-114.091-114.133c-16.659-16.665-43.674-16.671-60.34-0.011-15.384 15.378-16.571 39.579-3.56 56.32l3.549 4.020zM506.85 917.338c21.881 0 39.915-16.471 42.38-37.691l0.287-4.976v-195.2c0-23.564-19.103-42.667-42.667-42.667-21.881 0-39.915 16.471-42.38 37.691l-0.287 4.976v195.2c0 23.564 19.103 42.667 42.667 42.667z" />
<glyph unicode="&#xe978;" glyph-name="uniE978" d="M263.475 558.153h493.995c29.278 0 49.326-28.557 40.696-55.522l-1.825-4.736-109.582-242.239c0.289-2.005 0.439-4.056 0.439-6.141 0-4.005-0.552-7.882-1.584-11.557 0.679-2.432 1.151-4.966 1.39-7.571l0.181-3.959v-186.923c0-23.564-19.103-42.667-42.667-42.667-21.881 0-39.915 16.471-42.38 37.691l-0.287 4.976-0.038 167.343h-182.741l0.009-167.334c0-21.881-16.471-39.915-37.691-42.38l-4.976-0.287c-21.881 0-39.915 16.471-42.38 37.691l-0.287 4.976v186.923c0 4.005 0.552 7.882 1.584 11.557-1.032 3.639-1.584 7.516-1.584 11.521 0 2.1 0.152 4.165 0.445 6.184l-109.588 242.196c-12.071 26.674 5.679 56.713 33.804 59.968l5.067 0.29zM691.328 472.819h-361.712l81.775-180.638h198.144l81.792 180.638z" />
<glyph unicode="&#xe979;" glyph-name="uniE979" d="M157.771 272.414l343.638-207.317c6.512-3.921 14.683-3.963 21.319 0l343.638 207.317c19.66 11.888 45.086 5.464 56.907-14.266 11.78-19.772 5.392-45.384-14.227-57.231l-343.638-207.358c-16.425-9.928-34.882-14.892-53.34-14.892s-36.873 4.964-53.34 14.85l-343.638 207.4c-19.66 11.847-26.006 37.459-14.227 57.231 11.738 19.772 37.205 26.196 56.907 14.266zM923.274 445.746c11.78-19.772 5.392-45.384-14.227-57.231l-343.638-207.358c-16.425-9.928-34.882-14.892-53.34-14.892s-36.873 4.964-53.34 14.85l-343.638 207.4c-19.66 11.847-26.006 37.459-14.227 57.231 11.738 19.772 37.205 26.154 56.907 14.266l343.638-207.317c6.512-3.921 14.683-3.963 21.319 0l343.638 207.317c19.66 11.847 45.086 5.464 56.907-14.266z" />
<glyph unicode="&#xe97a;" glyph-name="uniE97A" d="M512.069 833.896c-3.691 0-7.383-1.001-10.701-3.003l-323.439-195.178 323.481-195.22c6.512-3.879 14.683-3.921 21.319 0l323.688 195.345-323.688 195.095c-3.277 1.961-6.968 2.962-10.66 2.962zM512.069 354.106c-18.457 0-36.873 4.922-53.34 14.85l-323.481 195.22c-25.218 15.184-40.316 41.964-40.316 71.539s15.098 56.355 40.316 71.539l323.439 195.22c32.933 19.814 73.871 19.814 106.721 0l323.481-195.22c25.218-15.184 40.316-41.964 40.316-71.539s-15.098-56.355-40.316-71.539l-323.481-195.22c-16.425-9.886-34.882-14.85-53.34-14.85z" />
<glyph unicode="&#xe97b;" glyph-name="uniE97B" d="M469.333 746.667c23.564 0 42.667-19.103 42.667-42.667 0-21.881-16.471-39.915-37.691-42.38l-4.976-0.287c-21.881 0-39.915-16.471-42.38-37.691l-0.287-4.976c0-23.564-19.103-42.667-42.667-42.667s-42.667 19.103-42.667 42.667c0 70.692 57.308 128 128 128z" />
<glyph unicode="&#xe97c;" glyph-name="uniE97C" d="M512 874.667c-164.949 0-298.667-133.718-298.667-298.667s133.718-298.667 298.667-298.667c164.949 0 298.667 133.718 298.667 298.667s-133.718 298.667-298.667 298.667zM593.455 106.667h-162.909l-5.428-0.287c-23.149-2.465-41.117-20.499-41.117-42.38 0-23.564 20.839-42.667 46.545-42.667h162.909l5.428 0.287c23.149 2.465 41.117 20.499 41.117 42.38 0 23.564-20.839 42.667-46.545 42.667zM640 234.667h-256l-4.976-0.287c-21.22-2.465-37.691-20.499-37.691-42.38 0-23.564 19.103-42.667 42.667-42.667h256l4.976 0.287c21.22 2.465 37.691 20.499 37.691 42.38 0 23.564-19.103 42.667-42.667 42.667zM512 789.333c117.821 0 213.333-95.513 213.333-213.333s-95.513-213.333-213.333-213.333c-117.821 0-213.333 95.513-213.333 213.333s95.513 213.333 213.333 213.333z" />
<glyph unicode="&#xe97d;" glyph-name="mas" d="M512 874.667c47.128 0 85.333-38.205 85.333-85.333l-0.043-255.957 256.043-0.043c47.128 0 85.333-38.205 85.333-85.333s-38.205-85.333-85.333-85.333l-256.043 0.043 0.043-256.043c0-47.128-38.205-85.333-85.333-85.333s-85.333 38.205-85.333 85.333l-0.043 256.043-255.957-0.043c-47.128 0-85.333 38.205-85.333 85.333s38.205 85.333 85.333 85.333l255.957 0.043 0.043 255.957c0 47.128 38.205 85.333 85.333 85.333z" />
<glyph unicode="&#xe97e;" glyph-name="uniE97E" d="M349.752 127.988h-80.857v672c0 17.664-15.312 32.012-34.248 32.012-18.898 0-34.21-14.348-34.21-32.012v-672h-80.857c-18.898 0-34.248-14.313-34.248-32.012 0-17.664 15.35-31.977 34.248-31.977h230.172c18.898 0 34.248 14.313 34.248 31.977 0 17.699-15.35 32.012-34.248 32.012z" />
<glyph unicode="&#xe97f;" glyph-name="uniE97F" d="M588.338 315.585c-60.95 31.667-130.202 37.927-194.892 17.642l-41.264-12.927c-21.577-6.829-44.757 5.041-51.579 26.463-6.864 21.423 5.096 44.268 26.756 51.016l41.264 12.927c85.774 26.87 177.384 18.699 257.897-23.13 71.882-37.276 157.122-38.577 229.95-3.821v317.886c-87.541-30.203-184.617-23.659-268.131 19.675-60.95 31.667-130.202 37.927-194.892 17.642l-41.264-12.927c-21.577-6.87-44.757 5.041-51.579 26.463-6.864 21.423 5.096 44.268 26.756 51.016l41.264 12.927c85.774 26.911 177.384 18.74 257.897-23.13 74.513-38.659 163.492-38.618 238.005 0.203 15.7 8.252 34.236 7.642 49.483-1.463 15.453-9.228 24.659-25.488 24.659-43.455v-383.374c0-18.943-10.48-36.179-27.331-44.959l-8.508-4.39c-49.319-25.691-103.405-38.537-157.492-38.537-53.922 0-107.844 12.724-156.999 38.252z" />
<glyph unicode="&#xe980;" glyph-name="uniE980" d="M469.333 831.573v-767.147c0-23.564 19.103-42.667 42.667-42.667s42.667 19.103 42.667 42.667v767.147c0 23.564-19.103 42.667-42.667 42.667s-42.667-19.103-42.667-42.667z" />
<glyph unicode="&#xe981;" glyph-name="uniE981" d="M303.46 248.387c2.104-30.666 12.596-60.165 30.331-85.271 18.339-27.224 44.714-49.333 75.573-63.024 31.905-13.705 66.003-20.059 100.15-18.815l12.804 0.823c35.069 1.12 71.637 12.091 103.678 31.688 29.082 17.431 53.27 42.565 69.759 72.625 15.983 27.59 23.885 60.184 22.274 93.011-0.851 48.334-20.18 95.884-54.185 132.082-41.525 38.498-89.324 64.509-141.246 77.823-37.723 9.945-72.652 29.212-101.395 56.011-17.898 18.848-29.206 46.007-29.965 74.464-0.977 17.543 2.774 33.73 10.755 47.929 9.582 18.050 23.103 32.416 39.647 42.513 19.511 11.934 41.739 18.602 64.555 19.378 26.761 2.276 51.404-1.813 73.9-11.748 16.133-7.157 29.979-18.763 39.884-33.458 7.7-10.915 12.562-22.795 14.567-35.167l0.86-7.478c1.613-23.509 21.978-41.259 45.486-39.647s41.259 21.978 39.647 45.486c-2.104 30.666-12.596 60.165-30.331 85.271-18.339 27.224-44.714 49.333-75.573 63.024-31.75 14.022-66.135 20.699-100.654 19.629l-12.946-0.765c-35.277-1.139-71.845-12.109-103.886-31.707-29.588-18.058-53.797-43.78-70.049-74.443-15.458-27.474-22.959-59.848-21.113-92.373 1.27-48.334 20.984-95.686 55.261-131.582 37.097-34.677 79.683-59.46 125.903-73.902l13.973-4.022c38.499-9.873 73.686-29.021 102.673-55.793 17.356-18.631 28.442-45.904 28.955-74.385 0.85-17.737-3.101-34.034-11.333-48.256-9.691-17.644-23.2-31.681-39.624-41.526-16.972-10.379-35.728-16.761-55.108-18.861l-9.737-0.692c-26.694-2.39-51.093 1.469-73.447 11.069-15.732 6.983-29.578 18.589-39.483 33.284-7.7 10.915-12.562 22.795-14.567 35.167l-0.86 7.478c-1.613 23.509-21.978 41.259-45.486 39.647s-41.259-21.978-39.647-45.486z" />
<glyph unicode="&#xe982;" glyph-name="uniE982" d="M938.667 426.667c0-58.91-47.756-106.667-106.667-106.667s-106.667 47.756-106.667 106.667c0 58.91 47.756 106.667 106.667 106.667s106.667-47.756 106.667-106.667z" />
<glyph unicode="&#xe983;" glyph-name="uniE983" d="M192 533.333c58.91 0 106.667-47.756 106.667-106.667s-47.756-106.667-106.667-106.667c-58.91 0-106.667 47.756-106.667 106.667s47.756 106.667 106.667 106.667zM512 533.333c58.91 0 106.667-47.756 106.667-106.667s-47.756-106.667-106.667-106.667c-58.91 0-106.667 47.756-106.667 106.667s47.756 106.667 106.667 106.667z" />
<glyph unicode="&#xe984;" glyph-name="uniE984" d="M645.205 166.626h148.224v148.181h-148.224v-148.181zM809.259 81.293h-179.883c-38.315 0-69.504 31.147-69.504 69.461v179.883c0 38.315 31.189 69.504 69.504 69.504h179.883c38.315 0 69.504-31.189 69.504-69.504v-179.883c0-38.315-31.189-69.461-69.504-69.461v0z" />
<glyph unicode="&#xe985;" glyph-name="uniE985" d="M420.053 400.141c38.315 0 69.504-31.189 69.504-69.504v-179.883c0-38.315-31.189-69.461-69.504-69.461h-179.883c-38.315 0-69.504 31.147-69.504 69.461v179.883c0 38.315 31.189 69.504 69.504 69.504h179.883zM404.224 314.807h-148.224v-148.181h148.224v148.181zM420.053 789.346c38.315 0 69.504-31.189 69.504-69.461v-179.925c0-38.272-31.189-69.461-69.504-69.461h-179.883c-38.315 0-69.504 31.189-69.504 69.461v179.925c0 38.272 31.189 69.461 69.504 69.461h179.883zM809.259 789.346c38.315 0 69.504-31.189 69.504-69.461v-179.925c0-38.272-31.189-69.461-69.504-69.461h-179.883c-38.315 0-69.504 31.189-69.504 69.461v179.925c0 38.272 31.189 69.461 69.504 69.461h179.883zM404.224 704.013h-148.224v-148.181h148.224v148.181zM793.429 704.013h-148.224v-148.181h148.224v148.181z" />
<glyph unicode="&#xe986;" glyph-name="uniE986" d="M512 672.561c-70.668 0-128-57.332-128-128s57.332-128 128-128c70.668 0 128 57.332 128 128s-57.332 128-128 128zM512 587.228c23.54 0 42.667-19.127 42.667-42.667s-19.127-42.667-42.667-42.667c-23.54 0-42.667 19.127-42.667 42.667s19.127 42.667 42.667 42.667z" />
<glyph unicode="&#xe987;" glyph-name="uniE987" d="M512 389.614c70.168 0 128-54.788 128-123.509v0-121.263c0-68.72-57.832-123.509-128-123.509s-128 54.788-128 123.509v0 121.263c0 68.72 57.832 123.509 128 123.509zM512 304.281c-24.040 0-42.667-17.646-42.667-38.175v0-121.263c0-20.529 18.626-38.175 42.667-38.175s42.667 17.646 42.667 38.175v0 121.263c0 20.529-18.626 38.175-42.667 38.175zM300.093 874.643c70.44-2.356 124.578-33.42 157.535-90.752 17.495 3.569 35.711 5.443 54.372 5.443s36.877-1.874 54.437-5.436c31.285 54.513 81.864 85.278 148.455 90.212l10.441 0.557h170.667c23.564 0 42.667-19.103 42.667-42.667 0-21.881-16.471-39.915-37.691-42.38l-4.976-0.287-169.24 0.024c-35.809-1.198-61.048-12.841-78.887-36.538 69.395-40.679 116.631-111.727 119.942-193.838l0.186-9.244v-236.315c0-33.922-7.553-66.908-21.952-97.253-10.102-21.289-35.549-30.358-56.838-20.257s-30.358 35.549-20.257 56.838c7.515 15.839 12.028 32.717 13.324 50.15l0.39 10.522v236.315c0 84.408-75.684 154.263-170.667 154.263-92.015 0-165.918-65.557-170.447-146.394l-0.22-7.869v-236.315c0-16.78 2.951-33.146 8.672-48.685l5.016-11.934c10.093-21.293 1.013-46.737-20.28-56.83s-46.737-1.013-56.83 20.28l-1.988 4.307c-11.45 25.498-18.117 52.758-19.604 80.799l-0.319 12.063v236.315c0 86.006 48.14 160.883 120.143 203.115-16.314 21.687-38.687 33.277-69.004 35.966l-8.473 0.514h-170.667c-23.564 0-42.667 19.103-42.667 42.667 0 21.881 16.471 39.915 37.691 42.38l4.976 0.287 172.093-0.024z" />
<glyph unicode="&#xe988;" glyph-name="uniE988" d="M351.714 357.094c23.564 0 42.667-19.103 42.667-42.667s-19.103-42.667-42.667-42.667v0h-70.656c-23.564 0-42.667 19.103-42.667 42.667s19.103 42.667 42.667 42.667v0zM550.298 357.094c23.564 0 42.667-19.103 42.667-42.667s-19.103-42.667-42.667-42.667v0h-70.656c-23.564 0-42.667 19.103-42.667 42.667s19.103 42.667 42.667 42.667v0zM901.939 555.511c23.564 0 42.667-19.103 42.667-42.667s-19.103-42.667-42.667-42.667v0h-254.635c-23.564 0-42.667 19.103-42.667 42.667s19.103 42.667 42.667 42.667v0zM433.958 555.511c23.564 0 42.667-19.103 42.667-42.667s-19.103-42.667-42.667-42.667v0h-305.963c-23.564 0-42.667 19.103-42.667 42.667s19.103 42.667 42.667 42.667v0z" />
<glyph unicode="&#xe989;" glyph-name="uniE989" d="M169.95 776.849c16.662 16.662 43.677 16.662 60.34 0v0l629.717-629.717c16.662-16.662 16.662-43.677 0-60.34s-43.677-16.662-60.34 0v0l-26.841 26.842-564.352-0.038c-65.592 0-119.183 51.285-122.927 115.942l-0.209 7.237v390.059c0 50.070 29.86 93.167 72.748 112.429-2.317 13.22 1.632 27.355 11.864 37.587zM821.483 750.029c68.022 0 123.136-55.155 123.136-123.179v0-389.461c0-23.564-19.103-42.667-42.667-42.667s-42.667 19.103-42.667 42.667v0 389.461c0 20.91-16.923 37.845-37.803 37.845v0h-368.683c-23.564 0-42.667 19.103-42.667 42.667s19.103 42.667 42.667 42.667v0zM687.492 198.967l-467.376 467.319c-3.701-1.047-7.607-1.608-11.643-1.608v0l-4.742-0.295c-18.641-2.334-33.060-18.249-33.060-37.551v0-390.059c0-20.91 16.923-37.845 37.803-37.845v0l479.019 0.038z" />
<glyph unicode="&#xe98a;" glyph-name="uniE98A" d="M528.145 448.393c23.564 0 42.669-19.098 42.671-42.662v0l0.043-383.616c0.003-23.564-19.098-42.671-42.662-42.671s-42.669 19.098-42.671 42.662v0l-0.043 383.616c-0.003 23.564 19.098 42.671 42.662 42.671zM528.192 832.021c23.564 0 42.667-19.103 42.667-42.667v0-178.603c0-23.564-19.103-42.667-42.667-42.667s-42.667 19.103-42.667 42.667v0 178.603c0 23.564 19.103 42.667 42.667 42.667z" />
<glyph unicode="&#xe98b;" glyph-name="uniE98B" d="M183.146 750.729c15.381 15.381 39.583 16.564 56.32 3.549l4.020-3.549 629.717-629.717c16.662-16.662 16.662-43.677 0-60.34-15.381-15.381-39.583-16.564-56.32-3.549l-4.020 3.549-94.476 94.486c-1.652-3.595-3.43-7.166-5.333-10.711-15.745-29.384-39.208-53.684-69.687-72.687-30.61-19.138-66.17-29.765-106.105-32.144-42.54-2.484-80.126 3.563-112.346 18.751-32.218 15.161-57.791 36.272-75.752 63.185-17.655 26.399-27.617 54.968-29.398 85.071-1.392 23.523 16.549 43.72 40.072 45.112 21.843 1.292 40.818-14.085 44.532-35.122l1.35-12.209c1.849-12.025 6.551-23.713 14.399-35.448 8.998-13.483 22.447-24.585 41.156-33.389 18.414-8.68 41.916-12.462 70.96-10.765 26.14 1.558 47.884 8.056 65.938 19.343 18.226 11.363 31.187 24.787 39.68 40.637 5.636 10.498 9.1 20.892 10.506 31.407l0.641 8.323-143.959 143.864c-50.074 16.895-89.928 38.582-119.265 65.627l-8.243 8.025c-25.349 26.096-42.132 57.993-50.196 94.827l-2.22 11.581-141.974 141.953c-16.662 16.662-16.662 43.677 0 60.34zM519.050 771.798c42.535 2.538 80.192-3.517 112.442-18.748 32.222-15.163 57.75-36.232 75.71-63.143 17.655-26.399 27.617-54.968 29.398-85.071 1.392-23.523-16.549-43.72-40.072-45.112-21.843-1.292-40.818 14.085-44.532 35.122l-1.35 12.209c-1.849 12.025-6.551 23.713-14.399 35.448-8.994 13.477-22.397 24.539-41.142 33.36-18.43 8.704-41.941 12.484-71.033 10.749-22.344-1.301-41.508-6.262-57.845-14.733l-12.305-6.924c-19.296-9.166-42.825-2.614-54.43 15.936-12.498 19.976-6.436 46.303 13.54 58.801 30.595 19.142 66.205 29.788 106.020 32.106z" />
</font>
</defs>
</svg>
